G04 EAGLE Gerber RS-274X export*
G75*
%MOMM*%
%FSLAX34Y34*%
%LPD*%
%INSolder stop mask CMP*%
%IPPOS*%
%AMOC8*
5,1,8,0,0,1.08239X$1,22.5*%
G01*
%ADD10C,3.403200*%
%ADD11R,2.003200X2.903200*%
%ADD12R,1.203200X1.303200*%
%ADD13R,1.303200X1.203200*%
%ADD14R,1.403200X1.103200*%
%ADD15R,1.003200X1.103200*%
%ADD16R,0.483200X1.053200*%
%ADD17R,2.603200X1.853200*%
%ADD18R,0.903200X0.453200*%
%ADD19R,2.003200X2.003200*%
%ADD20R,0.553200X0.553200*%
%ADD21R,0.503200X1.103200*%
%ADD22R,1.103200X0.503200*%
%ADD23C,0.650000*%
%ADD24C,0.853200*%
%ADD25R,0.503200X1.403200*%
%ADD26R,0.403200X1.203200*%
%ADD27C,1.203200*%
%ADD28C,1.778000*%
%ADD29C,1.981200*%
%ADD30R,2.703200X1.403200*%
%ADD31R,1.003200X1.003200*%
%ADD32R,0.903200X1.103200*%
%ADD33R,1.103200X0.903200*%
%ADD34R,0.503200X0.803200*%
%ADD35R,1.270000X1.270000*%
%ADD36R,1.473200X1.473200*%
%ADD37C,1.270000*%
%ADD38C,1.473200*%
%ADD39R,1.303200X0.803200*%
%ADD40C,1.422400*%
%ADD41C,1.625600*%
%ADD42C,0.400000*%
%ADD43R,1.253200X0.853200*%
%ADD44R,1.603200X1.403200*%
%ADD45R,1.303200X0.403200*%
%ADD46R,1.203200X0.403200*%
%ADD47R,1.703200X0.482600*%
%ADD48R,0.482600X1.703200*%
%ADD49R,1.100000X1.100000*%
%ADD50R,1.303200X1.303200*%
%ADD51C,1.100000*%
%ADD52C,1.303200*%
%ADD53C,1.800000*%
%ADD54C,2.003200*%
%ADD55C,1.216000*%
%ADD56C,1.419200*%
%ADD57R,1.016000X0.508000*%
%ADD58R,0.508000X1.016000*%
%ADD59R,3.149600X3.149600*%
%ADD60C,3.203200*%
%ADD61C,1.503200*%
%ADD62C,1.879600*%
%ADD63C,2.082800*%
%ADD64P,2.336880X8X22.500000*%
%ADD65P,2.556822X8X22.500000*%
%ADD66C,0.978200*%


D10*
X535000Y735000D03*
X536000Y76000D03*
X5000Y645000D03*
X5000Y152500D03*
D11*
X173275Y73650D03*
X202275Y73650D03*
D12*
X212400Y127700D03*
X212400Y110700D03*
D11*
X148900Y233150D03*
X177900Y233150D03*
D12*
X119900Y193200D03*
X119900Y176200D03*
D13*
X176900Y207700D03*
X193900Y207700D03*
D12*
X110300Y215300D03*
X110300Y232300D03*
X48250Y215800D03*
X48250Y232800D03*
D13*
X76400Y173950D03*
X93400Y173950D03*
D14*
X64150Y151450D03*
D15*
X47150Y151450D03*
X47150Y135450D03*
X66150Y135450D03*
D16*
X172400Y99650D03*
X177400Y99650D03*
X182400Y99650D03*
X187400Y99650D03*
X192400Y99650D03*
X192400Y129150D03*
X187400Y129150D03*
X182400Y129150D03*
X177400Y129150D03*
X172400Y129150D03*
D17*
X182400Y114400D03*
D18*
X166900Y116400D03*
X166900Y112400D03*
X197900Y112400D03*
X197900Y116400D03*
X166900Y120400D03*
X166900Y108400D03*
X197900Y120400D03*
X197900Y108400D03*
D19*
X46200Y179125D03*
D20*
X33700Y166625D03*
D21*
X38700Y163625D03*
X43700Y163625D03*
X48700Y163625D03*
X53700Y163625D03*
D20*
X58700Y166625D03*
D22*
X61700Y171625D03*
X61700Y176625D03*
X61700Y181625D03*
X61700Y186625D03*
D20*
X58700Y191625D03*
D21*
X53700Y194625D03*
X48700Y194625D03*
X43700Y194625D03*
X38700Y194625D03*
D20*
X33700Y191625D03*
D22*
X30700Y186625D03*
X30700Y181625D03*
X30700Y176625D03*
X30700Y171625D03*
D23*
X85900Y77400D03*
D24*
X85900Y77400D03*
D23*
X81900Y70400D03*
D24*
X81900Y70400D03*
D23*
X77900Y77400D03*
D24*
X77900Y77400D03*
D23*
X73900Y70400D03*
D24*
X73900Y70400D03*
D23*
X69900Y77400D03*
D24*
X69900Y77400D03*
D23*
X61900Y77400D03*
D24*
X61900Y77400D03*
D23*
X53900Y77400D03*
D24*
X53900Y77400D03*
D23*
X41900Y70400D03*
D24*
X41900Y70400D03*
D23*
X37900Y77400D03*
D24*
X37900Y77400D03*
D23*
X33900Y70400D03*
D24*
X33900Y70400D03*
D23*
X29900Y77400D03*
D24*
X29900Y77400D03*
D23*
X65900Y70400D03*
D24*
X65900Y70400D03*
D23*
X49900Y70400D03*
D24*
X49900Y70400D03*
D23*
X45900Y77400D03*
D24*
X45900Y77400D03*
D25*
X55400Y89900D03*
X60400Y89900D03*
X50400Y89900D03*
X65400Y89900D03*
X45400Y89900D03*
X70400Y89900D03*
X40400Y89900D03*
X75400Y89900D03*
X35400Y89900D03*
X80400Y89900D03*
X30400Y89900D03*
X85400Y89900D03*
D26*
X57900Y13100D03*
X57900Y43100D03*
D27*
X15200Y62900D02*
X15200Y68900D01*
X15200Y21600D02*
X15200Y15600D01*
X100600Y15600D02*
X100600Y21600D01*
X100600Y62900D02*
X100600Y68900D01*
D28*
X234900Y40000D03*
D29*
X234900Y40000D03*
D28*
X234900Y65400D03*
D29*
X234900Y65400D03*
D28*
X234900Y90800D03*
D29*
X234900Y90800D03*
D30*
X145300Y93960D03*
X145300Y124440D03*
D31*
X240500Y253500D03*
X240500Y268500D03*
X218300Y253500D03*
X218300Y268500D03*
D32*
X139100Y153550D03*
X150100Y153550D03*
X139250Y142050D03*
X150250Y142050D03*
D33*
X240500Y284500D03*
X240500Y295500D03*
X218300Y284500D03*
X218300Y295500D03*
D34*
X138200Y163900D03*
X144700Y163900D03*
X151200Y163900D03*
X157700Y163900D03*
X157700Y191900D03*
X151200Y191900D03*
X144700Y191900D03*
X138200Y191900D03*
D17*
X147950Y177900D03*
D35*
X435000Y290000D03*
D36*
X435000Y290000D03*
D37*
X455000Y290000D03*
D38*
X455000Y290000D03*
D37*
X475000Y290000D03*
D38*
X475000Y290000D03*
D37*
X495000Y290000D03*
D38*
X495000Y290000D03*
D35*
X435000Y205000D03*
D36*
X435000Y205000D03*
D37*
X455000Y205000D03*
D38*
X455000Y205000D03*
D37*
X475000Y205000D03*
D38*
X475000Y205000D03*
D37*
X495000Y205000D03*
D38*
X495000Y205000D03*
D13*
X65950Y250400D03*
X82950Y250400D03*
D39*
X91950Y214400D03*
X91950Y223900D03*
X91950Y233400D03*
X65950Y233400D03*
X65950Y214400D03*
D11*
X176575Y162400D03*
X205575Y162400D03*
D33*
X47950Y119275D03*
X47950Y108275D03*
X115200Y65900D03*
X115200Y54900D03*
D40*
X170950Y32900D03*
D41*
X170950Y32900D03*
D40*
X190950Y32900D03*
D41*
X190950Y32900D03*
D11*
X78200Y113900D03*
X107200Y113900D03*
D42*
X211400Y342700D03*
X203400Y342700D03*
X195400Y342700D03*
X187400Y342700D03*
X179400Y342700D03*
X171400Y342700D03*
X163400Y342700D03*
X155400Y342700D03*
X147400Y342700D03*
X139400Y342700D03*
X131400Y342700D03*
X123400Y342700D03*
X115400Y342700D03*
X211400Y350700D03*
X203400Y350700D03*
X195400Y350700D03*
X211400Y358700D03*
X211400Y366700D03*
X211400Y374700D03*
X211400Y382700D03*
X211400Y390700D03*
X211400Y398700D03*
X211400Y406700D03*
X211400Y414700D03*
X211400Y422700D03*
X211400Y430700D03*
X211400Y438700D03*
X187400Y350700D03*
X179400Y350700D03*
X171400Y350700D03*
X163400Y350700D03*
X155400Y350700D03*
X147400Y350700D03*
X139400Y350700D03*
X131400Y350700D03*
X123400Y350700D03*
X115400Y350700D03*
X203400Y358700D03*
X203400Y366700D03*
X203400Y374700D03*
X203400Y382700D03*
X203400Y390700D03*
X203400Y398700D03*
X195400Y358700D03*
X195400Y366700D03*
X195400Y374700D03*
X195400Y382700D03*
X195400Y390700D03*
X195400Y398700D03*
X187400Y358700D03*
X187400Y366700D03*
X187400Y374700D03*
X187400Y382700D03*
X187400Y390700D03*
X187400Y398700D03*
X179400Y358700D03*
X179400Y366700D03*
X179400Y374700D03*
X179400Y382700D03*
X179400Y390700D03*
X179400Y398700D03*
X171400Y358700D03*
X171400Y366700D03*
X171400Y374700D03*
X171400Y382700D03*
X171400Y390700D03*
X171400Y398700D03*
X163400Y358700D03*
X163400Y366700D03*
X163400Y374700D03*
X163400Y382700D03*
X163400Y390700D03*
X163400Y398700D03*
X155400Y358700D03*
X155400Y366700D03*
X155400Y374700D03*
X155400Y382700D03*
X155400Y390700D03*
X155400Y398700D03*
X147400Y358700D03*
X147400Y366700D03*
X147400Y374700D03*
X147400Y382700D03*
X147400Y390700D03*
X147400Y398700D03*
X139400Y358700D03*
X139400Y366700D03*
X139400Y374700D03*
X139400Y382700D03*
X139400Y390700D03*
X139400Y398700D03*
X131400Y358700D03*
X131400Y366700D03*
X131400Y374700D03*
X131400Y382700D03*
X131400Y390700D03*
X131400Y398700D03*
X123400Y358700D03*
X123400Y366700D03*
X123400Y374700D03*
X123400Y382700D03*
X123400Y390700D03*
X123400Y398700D03*
X115400Y358700D03*
X115400Y366700D03*
X115400Y374700D03*
X115400Y382700D03*
X115400Y390700D03*
X115400Y398700D03*
X203400Y406700D03*
X203400Y414700D03*
X203400Y422700D03*
X203400Y430700D03*
X203400Y438700D03*
X195400Y406700D03*
X195400Y414700D03*
X195400Y422700D03*
X195400Y430700D03*
X195400Y438700D03*
X187400Y406700D03*
X187400Y414700D03*
X187400Y422700D03*
X187400Y430700D03*
X187400Y438700D03*
X179400Y406700D03*
X179400Y414700D03*
X179400Y422700D03*
X179400Y430700D03*
X179400Y438700D03*
X171400Y406700D03*
X171400Y414700D03*
X171400Y422700D03*
X171400Y430700D03*
X171400Y438700D03*
X163400Y406700D03*
X163400Y414700D03*
X163400Y422700D03*
X163400Y430700D03*
X163400Y438700D03*
X155400Y406700D03*
X155400Y414700D03*
X155400Y422700D03*
X155400Y430700D03*
X155400Y438700D03*
X147400Y406700D03*
X147400Y414700D03*
X147400Y422700D03*
X147400Y430700D03*
X147400Y438700D03*
X139400Y406700D03*
X139400Y414700D03*
X139400Y422700D03*
X139400Y430700D03*
X139400Y438700D03*
X131400Y406700D03*
X131400Y414700D03*
X131400Y422700D03*
X131400Y430700D03*
X131400Y438700D03*
X123400Y406700D03*
X123400Y414700D03*
X123400Y422700D03*
X123400Y430700D03*
X123400Y438700D03*
X115400Y406700D03*
X115400Y414700D03*
X115400Y422700D03*
X115400Y430700D03*
X115400Y438700D03*
D33*
X196250Y295500D03*
X196250Y284500D03*
X163775Y295500D03*
X163775Y284500D03*
X207325Y295500D03*
X207325Y284500D03*
X185375Y295500D03*
X185375Y284500D03*
X174475Y295500D03*
X174475Y284500D03*
X152875Y295500D03*
X152875Y284500D03*
D43*
X99450Y303750D03*
X140950Y303750D03*
X99450Y282250D03*
X140950Y282250D03*
D42*
X85500Y422400D03*
X85500Y414400D03*
X85500Y406400D03*
X85500Y374400D03*
X85500Y366400D03*
X85500Y358400D03*
X77500Y422400D03*
X77500Y414400D03*
X77500Y406400D03*
X69500Y422400D03*
X61500Y422400D03*
X53500Y422400D03*
X45500Y422400D03*
X37500Y422400D03*
X29500Y422400D03*
X21500Y422400D03*
X77500Y374400D03*
X77500Y366400D03*
X77500Y358400D03*
X69500Y414400D03*
X61500Y414400D03*
X53500Y414400D03*
X45500Y414400D03*
X37500Y414400D03*
X29500Y414400D03*
X69500Y406400D03*
X61500Y406400D03*
X53500Y406400D03*
X45500Y406400D03*
X37500Y406400D03*
X29500Y406400D03*
X69500Y374400D03*
X61500Y374400D03*
X53500Y374400D03*
X45500Y374400D03*
X37500Y374400D03*
X29500Y374400D03*
X69500Y366400D03*
X61500Y366400D03*
X53500Y366400D03*
X45500Y366400D03*
X37500Y366400D03*
X29500Y366400D03*
X69500Y358400D03*
X61500Y358400D03*
X53500Y358400D03*
X45500Y358400D03*
X37500Y358400D03*
X29500Y358400D03*
X21500Y414400D03*
X21500Y406400D03*
X21500Y374400D03*
X21500Y366400D03*
X21500Y358400D03*
D44*
X302800Y429900D03*
X278800Y429900D03*
X278800Y410900D03*
X302800Y410900D03*
D32*
X303400Y398200D03*
X290400Y398200D03*
X259600Y398300D03*
X270600Y398300D03*
D45*
X369075Y141079D03*
D46*
X368575Y137079D03*
X368575Y133079D03*
X368575Y129079D03*
X368575Y125079D03*
X368575Y121079D03*
X368575Y117079D03*
X368575Y113079D03*
X368575Y109079D03*
X368575Y105079D03*
X386575Y105079D03*
X386575Y109079D03*
X386575Y113079D03*
X386575Y117079D03*
X386575Y121079D03*
X386575Y125079D03*
X386575Y129079D03*
X386575Y133079D03*
X386575Y137079D03*
X386575Y141079D03*
D32*
X371075Y151979D03*
X384075Y151979D03*
X384075Y95279D03*
X371075Y95279D03*
D47*
X152900Y536100D03*
X152900Y541100D03*
X152900Y546100D03*
X152900Y551100D03*
X152900Y556100D03*
X152900Y561100D03*
X152900Y566100D03*
X152900Y571100D03*
X152900Y576100D03*
X152900Y581100D03*
X152900Y586100D03*
X152900Y591100D03*
D48*
X138900Y605100D03*
X133900Y605100D03*
X128900Y605100D03*
X123900Y605100D03*
X118900Y605100D03*
X113900Y605100D03*
X108900Y605100D03*
X103900Y605100D03*
X98900Y605100D03*
X93900Y605100D03*
X88900Y605100D03*
X83900Y605100D03*
D47*
X69900Y591100D03*
X69900Y586100D03*
X69900Y581100D03*
X69900Y576100D03*
X69900Y571100D03*
X69900Y566100D03*
X69900Y561100D03*
X69900Y556100D03*
X69900Y551100D03*
X69900Y546100D03*
X69900Y541100D03*
X69900Y536100D03*
D48*
X83900Y522100D03*
X88900Y522100D03*
X93900Y522100D03*
X98900Y522100D03*
X103900Y522100D03*
X108900Y522100D03*
X113900Y522100D03*
X118900Y522100D03*
X123900Y522100D03*
X128900Y522100D03*
X133900Y522100D03*
X138900Y522100D03*
D33*
X62800Y500300D03*
X62800Y487300D03*
D49*
X153750Y707800D03*
D50*
X153750Y707800D03*
D51*
X141050Y682400D03*
D52*
X141050Y682400D03*
D51*
X128350Y707800D03*
D52*
X128350Y707800D03*
D51*
X115650Y682400D03*
D52*
X115650Y682400D03*
D51*
X102950Y707800D03*
D52*
X102950Y707800D03*
D51*
X90250Y682400D03*
D52*
X90250Y682400D03*
D51*
X77550Y707800D03*
D52*
X77550Y707800D03*
D51*
X64850Y682400D03*
D52*
X64850Y682400D03*
D53*
X30550Y732800D03*
D54*
X30550Y732800D03*
D53*
X188050Y732800D03*
D54*
X188050Y732800D03*
D55*
X172300Y812400D03*
D56*
X172300Y812400D03*
D55*
X71200Y812400D03*
D56*
X71200Y812400D03*
D55*
X147146Y812400D03*
D56*
X147146Y812400D03*
D55*
X46300Y812400D03*
D56*
X46300Y812400D03*
D10*
X52150Y771300D03*
X166450Y771300D03*
D33*
X45900Y628500D03*
X45900Y639500D03*
X99700Y628500D03*
X99700Y639500D03*
X110700Y628500D03*
X110700Y639500D03*
X121600Y627500D03*
X121600Y640500D03*
D12*
X61900Y625500D03*
X61900Y642500D03*
D33*
X77800Y627500D03*
X77800Y640500D03*
D32*
X187000Y539600D03*
X176000Y539600D03*
X187000Y550500D03*
X176000Y550500D03*
X187000Y561400D03*
X176000Y561400D03*
X176000Y593700D03*
X187000Y593700D03*
D33*
X116800Y488300D03*
X116800Y499300D03*
X127500Y488300D03*
X127500Y499300D03*
D32*
X23200Y567500D03*
X34200Y567500D03*
D33*
X88700Y627500D03*
X88700Y640500D03*
D32*
X35100Y556700D03*
X22100Y556700D03*
D33*
X159600Y500300D03*
X159600Y487300D03*
X138200Y488300D03*
X138200Y499300D03*
X148900Y488300D03*
X148900Y499300D03*
D32*
X187000Y572100D03*
X176000Y572100D03*
X187000Y582900D03*
X176000Y582900D03*
D33*
X84300Y488300D03*
X84300Y499300D03*
X95100Y488300D03*
X95100Y499300D03*
X106100Y488300D03*
X106100Y499300D03*
D32*
X187000Y528800D03*
X176000Y528800D03*
D33*
X73500Y488300D03*
X73500Y499300D03*
X44000Y488300D03*
X44000Y499300D03*
D57*
X319130Y558474D03*
X319130Y563554D03*
X319130Y568380D03*
X319130Y573460D03*
X319130Y578540D03*
X319130Y583620D03*
X319130Y588446D03*
X319130Y593526D03*
D58*
X312526Y600130D03*
X307446Y600130D03*
X302620Y600130D03*
X297540Y600130D03*
X292460Y600130D03*
X287380Y600130D03*
X282554Y600130D03*
X277474Y600130D03*
D57*
X270870Y593526D03*
X270870Y588446D03*
X270870Y583620D03*
X270870Y578540D03*
X270870Y573460D03*
X270870Y568380D03*
X270870Y563554D03*
X270870Y558474D03*
D58*
X277474Y551870D03*
X282554Y551870D03*
X287380Y551870D03*
X292460Y551870D03*
X297540Y551870D03*
X302620Y551870D03*
X307446Y551870D03*
X312526Y551870D03*
D59*
X295000Y576000D03*
D40*
X472400Y492700D03*
D41*
X472400Y492700D03*
D40*
X472400Y467300D03*
D41*
X472400Y467300D03*
D40*
X447000Y492700D03*
D41*
X447000Y492700D03*
D40*
X447000Y467300D03*
D41*
X447000Y467300D03*
D40*
X421600Y492700D03*
D41*
X421600Y492700D03*
D40*
X421600Y467300D03*
D41*
X421600Y467300D03*
D40*
X396200Y492700D03*
D41*
X396200Y492700D03*
D40*
X396200Y467300D03*
D41*
X396200Y467300D03*
D40*
X370800Y492700D03*
D41*
X370800Y492700D03*
D40*
X370800Y467300D03*
D41*
X370800Y467300D03*
D13*
X341900Y575200D03*
X358900Y575200D03*
D32*
X343800Y590800D03*
X356800Y590800D03*
X248100Y556200D03*
X235100Y556200D03*
D13*
X250100Y540500D03*
X233100Y540500D03*
X341900Y544000D03*
X358900Y544000D03*
D32*
X343900Y559600D03*
X356900Y559600D03*
X235000Y566900D03*
X248000Y566900D03*
X356800Y601400D03*
X343800Y601400D03*
D13*
X233000Y582600D03*
X250000Y582600D03*
D60*
X300000Y675000D03*
D61*
X250800Y668500D02*
X250800Y681500D01*
X333800Y681500D02*
X333800Y668500D01*
X364800Y668500D02*
X364800Y681500D01*
D60*
X300000Y795000D03*
D61*
X250800Y788500D02*
X250800Y801500D01*
X333800Y801500D02*
X333800Y788500D01*
X364800Y788500D02*
X364800Y801500D01*
D57*
X479130Y558474D03*
X479130Y563554D03*
X479130Y568380D03*
X479130Y573460D03*
X479130Y578540D03*
X479130Y583620D03*
X479130Y588446D03*
X479130Y593526D03*
D58*
X472526Y600130D03*
X467446Y600130D03*
X462620Y600130D03*
X457540Y600130D03*
X452460Y600130D03*
X447380Y600130D03*
X442554Y600130D03*
X437474Y600130D03*
D57*
X430870Y593526D03*
X430870Y588446D03*
X430870Y583620D03*
X430870Y578540D03*
X430870Y573460D03*
X430870Y568380D03*
X430870Y563554D03*
X430870Y558474D03*
D58*
X437474Y551870D03*
X442554Y551870D03*
X447380Y551870D03*
X452460Y551870D03*
X457540Y551870D03*
X462620Y551870D03*
X467446Y551870D03*
X472526Y551870D03*
D59*
X455000Y576000D03*
D13*
X499700Y578800D03*
X516700Y578800D03*
D32*
X501700Y594500D03*
X514700Y594500D03*
X409800Y555500D03*
X396800Y555500D03*
D13*
X411800Y539700D03*
X394800Y539700D03*
X499700Y536500D03*
X516700Y536500D03*
D32*
X501700Y552300D03*
X514700Y552300D03*
X514700Y605300D03*
X501700Y605300D03*
X396800Y566300D03*
X409800Y566300D03*
D13*
X394800Y582100D03*
X411800Y582100D03*
D60*
X460000Y675000D03*
D61*
X410800Y668500D02*
X410800Y681500D01*
X493800Y681500D02*
X493800Y668500D01*
X524800Y668500D02*
X524800Y681500D01*
D60*
X460000Y795000D03*
D61*
X410800Y788500D02*
X410800Y801500D01*
X493800Y801500D02*
X493800Y788500D01*
X524800Y788500D02*
X524800Y801500D01*
D12*
X100800Y253000D03*
X100800Y270000D03*
D40*
X314900Y214200D03*
D41*
X314900Y214200D03*
D40*
X289500Y214200D03*
D41*
X289500Y214200D03*
D40*
X314900Y239600D03*
D41*
X314900Y239600D03*
D40*
X289500Y239600D03*
D41*
X289500Y239600D03*
D40*
X314900Y265000D03*
D41*
X314900Y265000D03*
D40*
X289500Y265000D03*
D41*
X289500Y265000D03*
D40*
X314900Y290400D03*
D41*
X314900Y290400D03*
D40*
X289500Y290400D03*
D41*
X289500Y290400D03*
D40*
X314900Y315800D03*
D41*
X314900Y315800D03*
D40*
X289500Y315800D03*
D41*
X289500Y315800D03*
D35*
X435000Y120000D03*
D36*
X435000Y120000D03*
D37*
X455000Y120000D03*
D38*
X455000Y120000D03*
D37*
X475000Y120000D03*
D38*
X475000Y120000D03*
D37*
X495000Y120000D03*
D38*
X495000Y120000D03*
D62*
X308000Y141200D03*
D63*
X308000Y141200D03*
D62*
X333400Y141200D03*
D63*
X333400Y141200D03*
D62*
X308000Y115800D03*
D63*
X308000Y115800D03*
D62*
X333400Y115800D03*
D63*
X333400Y115800D03*
D62*
X308000Y90400D03*
D63*
X308000Y90400D03*
D62*
X333400Y90400D03*
D63*
X333400Y90400D03*
D62*
X308000Y65000D03*
D63*
X308000Y65000D03*
D62*
X333400Y65000D03*
D63*
X333400Y65000D03*
D62*
X308000Y39600D03*
D63*
X308000Y39600D03*
D62*
X333400Y39600D03*
D63*
X333400Y39600D03*
D35*
X435000Y35000D03*
D36*
X435000Y35000D03*
D37*
X455000Y35000D03*
D38*
X455000Y35000D03*
D37*
X475000Y35000D03*
D38*
X475000Y35000D03*
D37*
X495000Y35000D03*
D38*
X495000Y35000D03*
D62*
X368000Y372200D03*
D63*
X368000Y372200D03*
D62*
X368000Y397600D03*
D63*
X368000Y397600D03*
D62*
X393400Y372200D03*
D63*
X393400Y372200D03*
D62*
X393400Y397600D03*
D63*
X393400Y397600D03*
D62*
X418800Y372200D03*
D63*
X418800Y372200D03*
D62*
X418800Y397600D03*
D63*
X418800Y397600D03*
D62*
X444200Y372200D03*
D63*
X444200Y372200D03*
D62*
X444200Y397600D03*
D63*
X444200Y397600D03*
D62*
X469600Y372200D03*
D63*
X469600Y372200D03*
D62*
X469600Y397600D03*
D63*
X469600Y397600D03*
D62*
X495000Y372200D03*
D63*
X495000Y372200D03*
D62*
X495000Y397600D03*
D63*
X495000Y397600D03*
D62*
X520400Y372200D03*
D63*
X520400Y372200D03*
D62*
X520400Y397600D03*
D63*
X520400Y397600D03*
D62*
X545800Y372200D03*
D63*
X545800Y372200D03*
D62*
X545800Y397600D03*
D63*
X545800Y397600D03*
D32*
X513700Y563000D03*
X502700Y563000D03*
D33*
X86800Y298500D03*
X86800Y287500D03*
D43*
X32650Y303750D03*
X74150Y303750D03*
X32650Y282250D03*
X74150Y282250D03*
D64*
X44100Y536900D03*
D65*
X44100Y536900D03*
D64*
X377000Y561400D03*
D65*
X377000Y561400D03*
D64*
X238300Y398300D03*
D65*
X238300Y398300D03*
D38*
X225400Y519000D03*
X239500Y519000D03*
X267500Y519000D03*
X253500Y519000D03*
X290000Y519900D03*
X290000Y505800D03*
X290000Y477800D03*
X290000Y491800D03*
D31*
X229400Y253500D03*
X229400Y268500D03*
D33*
X229500Y284500D03*
X229500Y295500D03*
D38*
X-8100Y261600D03*
X6200Y261600D03*
X20300Y261600D03*
X34300Y261600D03*
X73500Y468500D03*
X84300Y477400D03*
X95100Y468500D03*
X106100Y477400D03*
X116800Y468400D03*
X127500Y477400D03*
X138200Y468400D03*
X148900Y477400D03*
X197900Y528800D03*
X207000Y539600D03*
X197900Y550500D03*
X207000Y561400D03*
X197900Y572100D03*
X207000Y582900D03*
X176800Y606400D03*
X44900Y574200D03*
X51300Y561800D03*
X54100Y468500D03*
X10000Y581100D03*
X10000Y595200D03*
D66*
X206700Y207650D03*
M02*
