M48
;GenerationSoftware,Autodesk,EAGLE,9.2.2*%
;CreationDate,2018-12-10T07:47:15Z*%
FMAT,2
ICI,OFF
METRIC,TZ,000.000
T12C0.200
T11C0.300
T10C0.400
T9C0.500
T8C0.800
T7C0.900
T6C1.000
T5C1.016
T4C1.321
T3C1.600
T2C3.000
T1C3.200
%
G90
M71
T1
X500Y64500
X500Y15250
X16645Y77130
X5215Y77130
X53600Y7600
X53500Y73500
T2
X30000Y67500
X30000Y79500
X46000Y67500
X46000Y79500
T3
X3055Y73280
X18805Y73280
T4
X23830Y39830
X4410Y53690
X37700Y56140
T5
X23490Y6540
X23490Y4000
X7120Y81240
X54580Y39760
X54580Y37220
X52040Y39760
X52040Y37220
X49500Y39760
X49500Y37220
X46960Y39760
X46960Y37220
X44420Y39760
X44420Y37220
X41880Y39760
X41880Y37220
X39340Y39760
X39340Y37220
X36800Y39760
X36800Y37220
X33340Y3960
X30800Y3960
X33340Y6500
X30800Y6500
X33340Y9040
X30800Y9040
X33340Y11580
X30800Y11580
X33340Y14120
X30800Y14120
X4630Y81240
X14715Y81240
X17230Y81240
X23490Y9080
T6
X28950Y26500
X39620Y46730
X31490Y26500
X47240Y49270
X31490Y23960
X28950Y21420
X31490Y21420
X37080Y46730
X37080Y49270
X39620Y49270
X42160Y46730
X28950Y23960
X47240Y46730
X44700Y49270
X44700Y46730
X28950Y31580
X31490Y31580
X28950Y29040
X31490Y29040
X42160Y49270
T7
X15375Y70780
X14105Y68240
X12835Y70780
X11565Y68240
X10295Y70780
X9025Y68240
X6485Y68240
X7755Y70780
T8
X17095Y3290
X19095Y3290
X43500Y3500
X49500Y3500
X47500Y12000
X43500Y29000
X45500Y29000
X47500Y29000
X49500Y29000
X49500Y12000
X47500Y3500
X45500Y12000
X43500Y12000
X45500Y3500
X43500Y20500
X45500Y20500
X47500Y20500
X49500Y20500
T9
X20670Y20765
T10
X6590Y7040
X4990Y7040
X2990Y7740
X4590Y7740
X3390Y7040
X3790Y7740
X4190Y7040
X5390Y7740
X6190Y7740
X7390Y7040
X7790Y7740
X8190Y7040
X8590Y7740
X6990Y7740
T11
X2970Y21840
X2270Y21840
X2270Y21140
X2970Y21140
X3670Y21140
X13520Y22190
X13520Y22940
X13520Y23640
X13520Y24390
X12770Y22190
X12770Y23640
X12770Y24390
X9195Y20690
X8333Y13515
X3795Y13540
X18245Y11440
X2270Y23740
X2970Y23740
X3670Y23740
X2270Y23040
X2970Y23040
X13570Y20190
X7570Y14265
X15757Y15352
X36370Y9509
X3670Y23040
X6445Y16140
X39162Y15158
X5020Y17503
X5020Y18303
X4220Y17503
X4220Y18303
X19020Y11915
X19020Y10965
X17470Y10965
X12040Y28220
X5340Y28220
X19170Y22140
X12770Y22940
X17470Y11915
X14795Y17315
X14795Y18265
X15645Y17765
X13970Y17765
X19920Y24340
X37107Y16134
X3670Y21840
X19920Y22840
X19920Y22140
X19170Y24340
X19170Y23590
X19170Y22840
X9210Y24040
X9620Y16090
X18802Y6547
X15870Y7140
X39158Y9528
X19920Y23590
T12
X32990Y61520
X33165Y58355
X46060Y60880
X48840Y58845
X48840Y58170
X48990Y61460
X19100Y42630
X24797Y48223
X24185Y48645
X16695Y40290
X18380Y41908
X21830Y24570
X16791Y42698
X12674Y37079
X12722Y40280
X15914Y34701
X19204Y41088
X19216Y37878
X16740Y38658
X21501Y33896
X17528Y37070
X11176Y33916
X11173Y44233
X21518Y44247
X15220Y42675
X8930Y42720
X1780Y42610
X9040Y40160
X5280Y40130
X6990Y40060
X52310Y56460
X8120Y37870
X3431Y37041
X10240Y36730
X6280Y35340
X17440Y27710
X24050Y30310
X12680Y38660
X39544Y12323
X12740Y41150
X10890Y59280
X12560Y59290
X13380Y53350
X12160Y64830
X8610Y64800
X6190Y65170
X1500Y55670
X6283Y47993
X15983Y47923
X8200Y54110
X11600Y74570
X10300Y74580
X32660Y57015
X36870Y54415
X36840Y57505
X36500Y60125
X30268Y54442
X27740Y54430
X23040Y53160
X23290Y59200
X26260Y56830
X31220Y60790
X24310Y64270
X32510Y64200
X39430Y59170
X39480Y52990
X42240Y56850
X43740Y54240
X46260Y54240
X52240Y60530
X52570Y57870
X52570Y53640
X47240Y60817
X28257Y39823
X29500Y57600
X45500Y57600
X29500Y58600
X28500Y58600
X28500Y57600
X28500Y56600
X29500Y56600
X30500Y56600
X30500Y57600
X30500Y58600
X45500Y58600
X44500Y58600
X44500Y57600
X44500Y56600
X45500Y56600
X46500Y56600
X46500Y57600
X46500Y58600
X15940Y42750
X19140Y35472
X22200Y35070
X31210Y34520
X20740Y35483
X31800Y34963
X22220Y35895
X33298Y35755
X21520Y36283
X33946Y36118
X23310Y36720
X33949Y36870
X22770Y37135
X33949Y37545
X24577Y37816
X33949Y38220
X20740Y36270
X33949Y38895
X24240Y34478
X30698Y33988
X19130Y37060
X33941Y39570
X9400Y53320
X5420Y51080
X5900Y58110
X2450Y58110
X5900Y59110
X1890Y59110
X19946Y41138
X19130Y38672
X20740Y38642
X16816Y39466
X19214Y41869
X15921Y35466
X14340Y36987
X15158Y41913
X19140Y36183
X19623Y27757
X9020Y35590
X5230Y37940
X1760Y35450
X7049Y37959
X8910Y37810
X7880Y40130
X5790Y41060
X11070Y64830
X8750Y62060
X1630Y56760
X15330Y82780
X9020Y82770
X19650Y59370
X15360Y74570
X14090Y74570
X12840Y74570
X9030Y74570
X16780Y50050
X3520Y54870
X31090Y39820
X33190Y54370
X25920Y54050
X49070Y53670
X42160Y54170
X41170Y59160
X50170Y61340
X34390Y60930
X24930Y59190
X8683Y28007
X18320Y37890
X18310Y36310
X19628Y30247
X18300Y35460
X20730Y30242
X17467Y35473
X18360Y30290
X16768Y37083
X17440Y30290
X15927Y37058
X15277Y30272
X12659Y41871
X4200Y41810
X4200Y37810
X15150Y37890
X4180Y37070
X15192Y36240
X2950Y37950
X15137Y38590
X6110Y37950
X3350Y35453
X14327Y35413
X2550Y37028
X13529Y36230
X1770Y37830
X12745Y37868
X2550Y40320
X13460Y38670
X2520Y41800
X15140Y40190
X3330Y41020
X14268Y40270
X2550Y41050
X13540Y39390
X3320Y42610
X15142Y39480
X4110Y41000
X13560Y40270
X3390Y41810
X13530Y41032
X13492Y41850
X11950Y42740
X18300Y38670
X35900Y12130
X27590Y12880
X13380Y61620
X13765Y59370
X16720Y41120
X14110Y56610
X8890Y58560
X8210Y56735
X16007Y41068
X8210Y56060
X16020Y40270
X16090Y33180
X8680Y30610
X17465Y41075
X30740Y53960
X46647Y53673
X36623Y52262
X17466Y40266
X31415Y53970
X47322Y53680
X37070Y52780
X32690Y56340
X48680Y56283
X33250Y57520
X30070Y60910
X32690Y58835
M30