G04 EAGLE Gerber RS-274X export*
G75*
%MOMM*%
%FSLAX34Y34*%
%LPD*%
%INoutline*%
%IPPOS*%
%AMOC8*
5,1,8,0,0,1.08239X$1,22.5*%
G01*
%ADD10C,0.000000*%
%ADD11C,0.600000*%


D10*
X560000Y-2000D02*
X560000Y853000D01*
X-20000Y853000D01*
X-20000Y-2000D01*
X560000Y-2000D01*
X519000Y735000D02*
X519005Y735393D01*
X519019Y735785D01*
X519043Y736177D01*
X519077Y736568D01*
X519120Y736959D01*
X519173Y737348D01*
X519236Y737735D01*
X519307Y738121D01*
X519389Y738506D01*
X519479Y738888D01*
X519580Y739267D01*
X519689Y739645D01*
X519808Y740019D01*
X519935Y740390D01*
X520072Y740758D01*
X520218Y741123D01*
X520373Y741484D01*
X520536Y741841D01*
X520708Y742194D01*
X520889Y742542D01*
X521079Y742886D01*
X521276Y743226D01*
X521482Y743560D01*
X521696Y743889D01*
X521919Y744213D01*
X522149Y744531D01*
X522386Y744844D01*
X522632Y745150D01*
X522885Y745451D01*
X523145Y745745D01*
X523412Y746033D01*
X523686Y746314D01*
X523967Y746588D01*
X524255Y746855D01*
X524549Y747115D01*
X524850Y747368D01*
X525156Y747614D01*
X525469Y747851D01*
X525787Y748081D01*
X526111Y748304D01*
X526440Y748518D01*
X526774Y748724D01*
X527114Y748921D01*
X527458Y749111D01*
X527806Y749292D01*
X528159Y749464D01*
X528516Y749627D01*
X528877Y749782D01*
X529242Y749928D01*
X529610Y750065D01*
X529981Y750192D01*
X530355Y750311D01*
X530733Y750420D01*
X531112Y750521D01*
X531494Y750611D01*
X531879Y750693D01*
X532265Y750764D01*
X532652Y750827D01*
X533041Y750880D01*
X533432Y750923D01*
X533823Y750957D01*
X534215Y750981D01*
X534607Y750995D01*
X535000Y751000D01*
X535393Y750995D01*
X535785Y750981D01*
X536177Y750957D01*
X536568Y750923D01*
X536959Y750880D01*
X537348Y750827D01*
X537735Y750764D01*
X538121Y750693D01*
X538506Y750611D01*
X538888Y750521D01*
X539267Y750420D01*
X539645Y750311D01*
X540019Y750192D01*
X540390Y750065D01*
X540758Y749928D01*
X541123Y749782D01*
X541484Y749627D01*
X541841Y749464D01*
X542194Y749292D01*
X542542Y749111D01*
X542886Y748921D01*
X543226Y748724D01*
X543560Y748518D01*
X543889Y748304D01*
X544213Y748081D01*
X544531Y747851D01*
X544844Y747614D01*
X545150Y747368D01*
X545451Y747115D01*
X545745Y746855D01*
X546033Y746588D01*
X546314Y746314D01*
X546588Y746033D01*
X546855Y745745D01*
X547115Y745451D01*
X547368Y745150D01*
X547614Y744844D01*
X547851Y744531D01*
X548081Y744213D01*
X548304Y743889D01*
X548518Y743560D01*
X548724Y743226D01*
X548921Y742886D01*
X549111Y742542D01*
X549292Y742194D01*
X549464Y741841D01*
X549627Y741484D01*
X549782Y741123D01*
X549928Y740758D01*
X550065Y740390D01*
X550192Y740019D01*
X550311Y739645D01*
X550420Y739267D01*
X550521Y738888D01*
X550611Y738506D01*
X550693Y738121D01*
X550764Y737735D01*
X550827Y737348D01*
X550880Y736959D01*
X550923Y736568D01*
X550957Y736177D01*
X550981Y735785D01*
X550995Y735393D01*
X551000Y735000D01*
X550995Y734607D01*
X550981Y734215D01*
X550957Y733823D01*
X550923Y733432D01*
X550880Y733041D01*
X550827Y732652D01*
X550764Y732265D01*
X550693Y731879D01*
X550611Y731494D01*
X550521Y731112D01*
X550420Y730733D01*
X550311Y730355D01*
X550192Y729981D01*
X550065Y729610D01*
X549928Y729242D01*
X549782Y728877D01*
X549627Y728516D01*
X549464Y728159D01*
X549292Y727806D01*
X549111Y727458D01*
X548921Y727114D01*
X548724Y726774D01*
X548518Y726440D01*
X548304Y726111D01*
X548081Y725787D01*
X547851Y725469D01*
X547614Y725156D01*
X547368Y724850D01*
X547115Y724549D01*
X546855Y724255D01*
X546588Y723967D01*
X546314Y723686D01*
X546033Y723412D01*
X545745Y723145D01*
X545451Y722885D01*
X545150Y722632D01*
X544844Y722386D01*
X544531Y722149D01*
X544213Y721919D01*
X543889Y721696D01*
X543560Y721482D01*
X543226Y721276D01*
X542886Y721079D01*
X542542Y720889D01*
X542194Y720708D01*
X541841Y720536D01*
X541484Y720373D01*
X541123Y720218D01*
X540758Y720072D01*
X540390Y719935D01*
X540019Y719808D01*
X539645Y719689D01*
X539267Y719580D01*
X538888Y719479D01*
X538506Y719389D01*
X538121Y719307D01*
X537735Y719236D01*
X537348Y719173D01*
X536959Y719120D01*
X536568Y719077D01*
X536177Y719043D01*
X535785Y719019D01*
X535393Y719005D01*
X535000Y719000D01*
X534607Y719005D01*
X534215Y719019D01*
X533823Y719043D01*
X533432Y719077D01*
X533041Y719120D01*
X532652Y719173D01*
X532265Y719236D01*
X531879Y719307D01*
X531494Y719389D01*
X531112Y719479D01*
X530733Y719580D01*
X530355Y719689D01*
X529981Y719808D01*
X529610Y719935D01*
X529242Y720072D01*
X528877Y720218D01*
X528516Y720373D01*
X528159Y720536D01*
X527806Y720708D01*
X527458Y720889D01*
X527114Y721079D01*
X526774Y721276D01*
X526440Y721482D01*
X526111Y721696D01*
X525787Y721919D01*
X525469Y722149D01*
X525156Y722386D01*
X524850Y722632D01*
X524549Y722885D01*
X524255Y723145D01*
X523967Y723412D01*
X523686Y723686D01*
X523412Y723967D01*
X523145Y724255D01*
X522885Y724549D01*
X522632Y724850D01*
X522386Y725156D01*
X522149Y725469D01*
X521919Y725787D01*
X521696Y726111D01*
X521482Y726440D01*
X521276Y726774D01*
X521079Y727114D01*
X520889Y727458D01*
X520708Y727806D01*
X520536Y728159D01*
X520373Y728516D01*
X520218Y728877D01*
X520072Y729242D01*
X519935Y729610D01*
X519808Y729981D01*
X519689Y730355D01*
X519580Y730733D01*
X519479Y731112D01*
X519389Y731494D01*
X519307Y731879D01*
X519236Y732265D01*
X519173Y732652D01*
X519120Y733041D01*
X519077Y733432D01*
X519043Y733823D01*
X519019Y734215D01*
X519005Y734607D01*
X519000Y735000D01*
X520000Y76000D02*
X520005Y76393D01*
X520019Y76785D01*
X520043Y77177D01*
X520077Y77568D01*
X520120Y77959D01*
X520173Y78348D01*
X520236Y78735D01*
X520307Y79121D01*
X520389Y79506D01*
X520479Y79888D01*
X520580Y80267D01*
X520689Y80645D01*
X520808Y81019D01*
X520935Y81390D01*
X521072Y81758D01*
X521218Y82123D01*
X521373Y82484D01*
X521536Y82841D01*
X521708Y83194D01*
X521889Y83542D01*
X522079Y83886D01*
X522276Y84226D01*
X522482Y84560D01*
X522696Y84889D01*
X522919Y85213D01*
X523149Y85531D01*
X523386Y85844D01*
X523632Y86150D01*
X523885Y86451D01*
X524145Y86745D01*
X524412Y87033D01*
X524686Y87314D01*
X524967Y87588D01*
X525255Y87855D01*
X525549Y88115D01*
X525850Y88368D01*
X526156Y88614D01*
X526469Y88851D01*
X526787Y89081D01*
X527111Y89304D01*
X527440Y89518D01*
X527774Y89724D01*
X528114Y89921D01*
X528458Y90111D01*
X528806Y90292D01*
X529159Y90464D01*
X529516Y90627D01*
X529877Y90782D01*
X530242Y90928D01*
X530610Y91065D01*
X530981Y91192D01*
X531355Y91311D01*
X531733Y91420D01*
X532112Y91521D01*
X532494Y91611D01*
X532879Y91693D01*
X533265Y91764D01*
X533652Y91827D01*
X534041Y91880D01*
X534432Y91923D01*
X534823Y91957D01*
X535215Y91981D01*
X535607Y91995D01*
X536000Y92000D01*
X536393Y91995D01*
X536785Y91981D01*
X537177Y91957D01*
X537568Y91923D01*
X537959Y91880D01*
X538348Y91827D01*
X538735Y91764D01*
X539121Y91693D01*
X539506Y91611D01*
X539888Y91521D01*
X540267Y91420D01*
X540645Y91311D01*
X541019Y91192D01*
X541390Y91065D01*
X541758Y90928D01*
X542123Y90782D01*
X542484Y90627D01*
X542841Y90464D01*
X543194Y90292D01*
X543542Y90111D01*
X543886Y89921D01*
X544226Y89724D01*
X544560Y89518D01*
X544889Y89304D01*
X545213Y89081D01*
X545531Y88851D01*
X545844Y88614D01*
X546150Y88368D01*
X546451Y88115D01*
X546745Y87855D01*
X547033Y87588D01*
X547314Y87314D01*
X547588Y87033D01*
X547855Y86745D01*
X548115Y86451D01*
X548368Y86150D01*
X548614Y85844D01*
X548851Y85531D01*
X549081Y85213D01*
X549304Y84889D01*
X549518Y84560D01*
X549724Y84226D01*
X549921Y83886D01*
X550111Y83542D01*
X550292Y83194D01*
X550464Y82841D01*
X550627Y82484D01*
X550782Y82123D01*
X550928Y81758D01*
X551065Y81390D01*
X551192Y81019D01*
X551311Y80645D01*
X551420Y80267D01*
X551521Y79888D01*
X551611Y79506D01*
X551693Y79121D01*
X551764Y78735D01*
X551827Y78348D01*
X551880Y77959D01*
X551923Y77568D01*
X551957Y77177D01*
X551981Y76785D01*
X551995Y76393D01*
X552000Y76000D01*
X551995Y75607D01*
X551981Y75215D01*
X551957Y74823D01*
X551923Y74432D01*
X551880Y74041D01*
X551827Y73652D01*
X551764Y73265D01*
X551693Y72879D01*
X551611Y72494D01*
X551521Y72112D01*
X551420Y71733D01*
X551311Y71355D01*
X551192Y70981D01*
X551065Y70610D01*
X550928Y70242D01*
X550782Y69877D01*
X550627Y69516D01*
X550464Y69159D01*
X550292Y68806D01*
X550111Y68458D01*
X549921Y68114D01*
X549724Y67774D01*
X549518Y67440D01*
X549304Y67111D01*
X549081Y66787D01*
X548851Y66469D01*
X548614Y66156D01*
X548368Y65850D01*
X548115Y65549D01*
X547855Y65255D01*
X547588Y64967D01*
X547314Y64686D01*
X547033Y64412D01*
X546745Y64145D01*
X546451Y63885D01*
X546150Y63632D01*
X545844Y63386D01*
X545531Y63149D01*
X545213Y62919D01*
X544889Y62696D01*
X544560Y62482D01*
X544226Y62276D01*
X543886Y62079D01*
X543542Y61889D01*
X543194Y61708D01*
X542841Y61536D01*
X542484Y61373D01*
X542123Y61218D01*
X541758Y61072D01*
X541390Y60935D01*
X541019Y60808D01*
X540645Y60689D01*
X540267Y60580D01*
X539888Y60479D01*
X539506Y60389D01*
X539121Y60307D01*
X538735Y60236D01*
X538348Y60173D01*
X537959Y60120D01*
X537568Y60077D01*
X537177Y60043D01*
X536785Y60019D01*
X536393Y60005D01*
X536000Y60000D01*
X535607Y60005D01*
X535215Y60019D01*
X534823Y60043D01*
X534432Y60077D01*
X534041Y60120D01*
X533652Y60173D01*
X533265Y60236D01*
X532879Y60307D01*
X532494Y60389D01*
X532112Y60479D01*
X531733Y60580D01*
X531355Y60689D01*
X530981Y60808D01*
X530610Y60935D01*
X530242Y61072D01*
X529877Y61218D01*
X529516Y61373D01*
X529159Y61536D01*
X528806Y61708D01*
X528458Y61889D01*
X528114Y62079D01*
X527774Y62276D01*
X527440Y62482D01*
X527111Y62696D01*
X526787Y62919D01*
X526469Y63149D01*
X526156Y63386D01*
X525850Y63632D01*
X525549Y63885D01*
X525255Y64145D01*
X524967Y64412D01*
X524686Y64686D01*
X524412Y64967D01*
X524145Y65255D01*
X523885Y65549D01*
X523632Y65850D01*
X523386Y66156D01*
X523149Y66469D01*
X522919Y66787D01*
X522696Y67111D01*
X522482Y67440D01*
X522276Y67774D01*
X522079Y68114D01*
X521889Y68458D01*
X521708Y68806D01*
X521536Y69159D01*
X521373Y69516D01*
X521218Y69877D01*
X521072Y70242D01*
X520935Y70610D01*
X520808Y70981D01*
X520689Y71355D01*
X520580Y71733D01*
X520479Y72112D01*
X520389Y72494D01*
X520307Y72879D01*
X520236Y73265D01*
X520173Y73652D01*
X520120Y74041D01*
X520077Y74432D01*
X520043Y74823D01*
X520019Y75215D01*
X520005Y75607D01*
X520000Y76000D01*
X-11000Y645000D02*
X-10995Y645393D01*
X-10981Y645785D01*
X-10957Y646177D01*
X-10923Y646568D01*
X-10880Y646959D01*
X-10827Y647348D01*
X-10764Y647735D01*
X-10693Y648121D01*
X-10611Y648506D01*
X-10521Y648888D01*
X-10420Y649267D01*
X-10311Y649645D01*
X-10192Y650019D01*
X-10065Y650390D01*
X-9928Y650758D01*
X-9782Y651123D01*
X-9627Y651484D01*
X-9464Y651841D01*
X-9292Y652194D01*
X-9111Y652542D01*
X-8921Y652886D01*
X-8724Y653226D01*
X-8518Y653560D01*
X-8304Y653889D01*
X-8081Y654213D01*
X-7851Y654531D01*
X-7614Y654844D01*
X-7368Y655150D01*
X-7115Y655451D01*
X-6855Y655745D01*
X-6588Y656033D01*
X-6314Y656314D01*
X-6033Y656588D01*
X-5745Y656855D01*
X-5451Y657115D01*
X-5150Y657368D01*
X-4844Y657614D01*
X-4531Y657851D01*
X-4213Y658081D01*
X-3889Y658304D01*
X-3560Y658518D01*
X-3226Y658724D01*
X-2886Y658921D01*
X-2542Y659111D01*
X-2194Y659292D01*
X-1841Y659464D01*
X-1484Y659627D01*
X-1123Y659782D01*
X-758Y659928D01*
X-390Y660065D01*
X-19Y660192D01*
X355Y660311D01*
X733Y660420D01*
X1112Y660521D01*
X1494Y660611D01*
X1879Y660693D01*
X2265Y660764D01*
X2652Y660827D01*
X3041Y660880D01*
X3432Y660923D01*
X3823Y660957D01*
X4215Y660981D01*
X4607Y660995D01*
X5000Y661000D01*
X5393Y660995D01*
X5785Y660981D01*
X6177Y660957D01*
X6568Y660923D01*
X6959Y660880D01*
X7348Y660827D01*
X7735Y660764D01*
X8121Y660693D01*
X8506Y660611D01*
X8888Y660521D01*
X9267Y660420D01*
X9645Y660311D01*
X10019Y660192D01*
X10390Y660065D01*
X10758Y659928D01*
X11123Y659782D01*
X11484Y659627D01*
X11841Y659464D01*
X12194Y659292D01*
X12542Y659111D01*
X12886Y658921D01*
X13226Y658724D01*
X13560Y658518D01*
X13889Y658304D01*
X14213Y658081D01*
X14531Y657851D01*
X14844Y657614D01*
X15150Y657368D01*
X15451Y657115D01*
X15745Y656855D01*
X16033Y656588D01*
X16314Y656314D01*
X16588Y656033D01*
X16855Y655745D01*
X17115Y655451D01*
X17368Y655150D01*
X17614Y654844D01*
X17851Y654531D01*
X18081Y654213D01*
X18304Y653889D01*
X18518Y653560D01*
X18724Y653226D01*
X18921Y652886D01*
X19111Y652542D01*
X19292Y652194D01*
X19464Y651841D01*
X19627Y651484D01*
X19782Y651123D01*
X19928Y650758D01*
X20065Y650390D01*
X20192Y650019D01*
X20311Y649645D01*
X20420Y649267D01*
X20521Y648888D01*
X20611Y648506D01*
X20693Y648121D01*
X20764Y647735D01*
X20827Y647348D01*
X20880Y646959D01*
X20923Y646568D01*
X20957Y646177D01*
X20981Y645785D01*
X20995Y645393D01*
X21000Y645000D01*
X20995Y644607D01*
X20981Y644215D01*
X20957Y643823D01*
X20923Y643432D01*
X20880Y643041D01*
X20827Y642652D01*
X20764Y642265D01*
X20693Y641879D01*
X20611Y641494D01*
X20521Y641112D01*
X20420Y640733D01*
X20311Y640355D01*
X20192Y639981D01*
X20065Y639610D01*
X19928Y639242D01*
X19782Y638877D01*
X19627Y638516D01*
X19464Y638159D01*
X19292Y637806D01*
X19111Y637458D01*
X18921Y637114D01*
X18724Y636774D01*
X18518Y636440D01*
X18304Y636111D01*
X18081Y635787D01*
X17851Y635469D01*
X17614Y635156D01*
X17368Y634850D01*
X17115Y634549D01*
X16855Y634255D01*
X16588Y633967D01*
X16314Y633686D01*
X16033Y633412D01*
X15745Y633145D01*
X15451Y632885D01*
X15150Y632632D01*
X14844Y632386D01*
X14531Y632149D01*
X14213Y631919D01*
X13889Y631696D01*
X13560Y631482D01*
X13226Y631276D01*
X12886Y631079D01*
X12542Y630889D01*
X12194Y630708D01*
X11841Y630536D01*
X11484Y630373D01*
X11123Y630218D01*
X10758Y630072D01*
X10390Y629935D01*
X10019Y629808D01*
X9645Y629689D01*
X9267Y629580D01*
X8888Y629479D01*
X8506Y629389D01*
X8121Y629307D01*
X7735Y629236D01*
X7348Y629173D01*
X6959Y629120D01*
X6568Y629077D01*
X6177Y629043D01*
X5785Y629019D01*
X5393Y629005D01*
X5000Y629000D01*
X4607Y629005D01*
X4215Y629019D01*
X3823Y629043D01*
X3432Y629077D01*
X3041Y629120D01*
X2652Y629173D01*
X2265Y629236D01*
X1879Y629307D01*
X1494Y629389D01*
X1112Y629479D01*
X733Y629580D01*
X355Y629689D01*
X-19Y629808D01*
X-390Y629935D01*
X-758Y630072D01*
X-1123Y630218D01*
X-1484Y630373D01*
X-1841Y630536D01*
X-2194Y630708D01*
X-2542Y630889D01*
X-2886Y631079D01*
X-3226Y631276D01*
X-3560Y631482D01*
X-3889Y631696D01*
X-4213Y631919D01*
X-4531Y632149D01*
X-4844Y632386D01*
X-5150Y632632D01*
X-5451Y632885D01*
X-5745Y633145D01*
X-6033Y633412D01*
X-6314Y633686D01*
X-6588Y633967D01*
X-6855Y634255D01*
X-7115Y634549D01*
X-7368Y634850D01*
X-7614Y635156D01*
X-7851Y635469D01*
X-8081Y635787D01*
X-8304Y636111D01*
X-8518Y636440D01*
X-8724Y636774D01*
X-8921Y637114D01*
X-9111Y637458D01*
X-9292Y637806D01*
X-9464Y638159D01*
X-9627Y638516D01*
X-9782Y638877D01*
X-9928Y639242D01*
X-10065Y639610D01*
X-10192Y639981D01*
X-10311Y640355D01*
X-10420Y640733D01*
X-10521Y641112D01*
X-10611Y641494D01*
X-10693Y641879D01*
X-10764Y642265D01*
X-10827Y642652D01*
X-10880Y643041D01*
X-10923Y643432D01*
X-10957Y643823D01*
X-10981Y644215D01*
X-10995Y644607D01*
X-11000Y645000D01*
X-11000Y152500D02*
X-10995Y152893D01*
X-10981Y153285D01*
X-10957Y153677D01*
X-10923Y154068D01*
X-10880Y154459D01*
X-10827Y154848D01*
X-10764Y155235D01*
X-10693Y155621D01*
X-10611Y156006D01*
X-10521Y156388D01*
X-10420Y156767D01*
X-10311Y157145D01*
X-10192Y157519D01*
X-10065Y157890D01*
X-9928Y158258D01*
X-9782Y158623D01*
X-9627Y158984D01*
X-9464Y159341D01*
X-9292Y159694D01*
X-9111Y160042D01*
X-8921Y160386D01*
X-8724Y160726D01*
X-8518Y161060D01*
X-8304Y161389D01*
X-8081Y161713D01*
X-7851Y162031D01*
X-7614Y162344D01*
X-7368Y162650D01*
X-7115Y162951D01*
X-6855Y163245D01*
X-6588Y163533D01*
X-6314Y163814D01*
X-6033Y164088D01*
X-5745Y164355D01*
X-5451Y164615D01*
X-5150Y164868D01*
X-4844Y165114D01*
X-4531Y165351D01*
X-4213Y165581D01*
X-3889Y165804D01*
X-3560Y166018D01*
X-3226Y166224D01*
X-2886Y166421D01*
X-2542Y166611D01*
X-2194Y166792D01*
X-1841Y166964D01*
X-1484Y167127D01*
X-1123Y167282D01*
X-758Y167428D01*
X-390Y167565D01*
X-19Y167692D01*
X355Y167811D01*
X733Y167920D01*
X1112Y168021D01*
X1494Y168111D01*
X1879Y168193D01*
X2265Y168264D01*
X2652Y168327D01*
X3041Y168380D01*
X3432Y168423D01*
X3823Y168457D01*
X4215Y168481D01*
X4607Y168495D01*
X5000Y168500D01*
X5393Y168495D01*
X5785Y168481D01*
X6177Y168457D01*
X6568Y168423D01*
X6959Y168380D01*
X7348Y168327D01*
X7735Y168264D01*
X8121Y168193D01*
X8506Y168111D01*
X8888Y168021D01*
X9267Y167920D01*
X9645Y167811D01*
X10019Y167692D01*
X10390Y167565D01*
X10758Y167428D01*
X11123Y167282D01*
X11484Y167127D01*
X11841Y166964D01*
X12194Y166792D01*
X12542Y166611D01*
X12886Y166421D01*
X13226Y166224D01*
X13560Y166018D01*
X13889Y165804D01*
X14213Y165581D01*
X14531Y165351D01*
X14844Y165114D01*
X15150Y164868D01*
X15451Y164615D01*
X15745Y164355D01*
X16033Y164088D01*
X16314Y163814D01*
X16588Y163533D01*
X16855Y163245D01*
X17115Y162951D01*
X17368Y162650D01*
X17614Y162344D01*
X17851Y162031D01*
X18081Y161713D01*
X18304Y161389D01*
X18518Y161060D01*
X18724Y160726D01*
X18921Y160386D01*
X19111Y160042D01*
X19292Y159694D01*
X19464Y159341D01*
X19627Y158984D01*
X19782Y158623D01*
X19928Y158258D01*
X20065Y157890D01*
X20192Y157519D01*
X20311Y157145D01*
X20420Y156767D01*
X20521Y156388D01*
X20611Y156006D01*
X20693Y155621D01*
X20764Y155235D01*
X20827Y154848D01*
X20880Y154459D01*
X20923Y154068D01*
X20957Y153677D01*
X20981Y153285D01*
X20995Y152893D01*
X21000Y152500D01*
X20995Y152107D01*
X20981Y151715D01*
X20957Y151323D01*
X20923Y150932D01*
X20880Y150541D01*
X20827Y150152D01*
X20764Y149765D01*
X20693Y149379D01*
X20611Y148994D01*
X20521Y148612D01*
X20420Y148233D01*
X20311Y147855D01*
X20192Y147481D01*
X20065Y147110D01*
X19928Y146742D01*
X19782Y146377D01*
X19627Y146016D01*
X19464Y145659D01*
X19292Y145306D01*
X19111Y144958D01*
X18921Y144614D01*
X18724Y144274D01*
X18518Y143940D01*
X18304Y143611D01*
X18081Y143287D01*
X17851Y142969D01*
X17614Y142656D01*
X17368Y142350D01*
X17115Y142049D01*
X16855Y141755D01*
X16588Y141467D01*
X16314Y141186D01*
X16033Y140912D01*
X15745Y140645D01*
X15451Y140385D01*
X15150Y140132D01*
X14844Y139886D01*
X14531Y139649D01*
X14213Y139419D01*
X13889Y139196D01*
X13560Y138982D01*
X13226Y138776D01*
X12886Y138579D01*
X12542Y138389D01*
X12194Y138208D01*
X11841Y138036D01*
X11484Y137873D01*
X11123Y137718D01*
X10758Y137572D01*
X10390Y137435D01*
X10019Y137308D01*
X9645Y137189D01*
X9267Y137080D01*
X8888Y136979D01*
X8506Y136889D01*
X8121Y136807D01*
X7735Y136736D01*
X7348Y136673D01*
X6959Y136620D01*
X6568Y136577D01*
X6177Y136543D01*
X5785Y136519D01*
X5393Y136505D01*
X5000Y136500D01*
X4607Y136505D01*
X4215Y136519D01*
X3823Y136543D01*
X3432Y136577D01*
X3041Y136620D01*
X2652Y136673D01*
X2265Y136736D01*
X1879Y136807D01*
X1494Y136889D01*
X1112Y136979D01*
X733Y137080D01*
X355Y137189D01*
X-19Y137308D01*
X-390Y137435D01*
X-758Y137572D01*
X-1123Y137718D01*
X-1484Y137873D01*
X-1841Y138036D01*
X-2194Y138208D01*
X-2542Y138389D01*
X-2886Y138579D01*
X-3226Y138776D01*
X-3560Y138982D01*
X-3889Y139196D01*
X-4213Y139419D01*
X-4531Y139649D01*
X-4844Y139886D01*
X-5150Y140132D01*
X-5451Y140385D01*
X-5745Y140645D01*
X-6033Y140912D01*
X-6314Y141186D01*
X-6588Y141467D01*
X-6855Y141755D01*
X-7115Y142049D01*
X-7368Y142350D01*
X-7614Y142656D01*
X-7851Y142969D01*
X-8081Y143287D01*
X-8304Y143611D01*
X-8518Y143940D01*
X-8724Y144274D01*
X-8921Y144614D01*
X-9111Y144958D01*
X-9292Y145306D01*
X-9464Y145659D01*
X-9627Y146016D01*
X-9782Y146377D01*
X-9928Y146742D01*
X-10065Y147110D01*
X-10192Y147481D01*
X-10311Y147855D01*
X-10420Y148233D01*
X-10521Y148612D01*
X-10611Y148994D01*
X-10693Y149379D01*
X-10764Y149765D01*
X-10827Y150152D01*
X-10880Y150541D01*
X-10923Y150932D01*
X-10957Y151323D01*
X-10981Y151715D01*
X-10995Y152107D01*
X-11000Y152500D01*
D11*
X15200Y68900D02*
X15200Y62900D01*
X100600Y62900D02*
X100600Y68900D01*
X15200Y21600D02*
X15200Y15600D01*
X100600Y15600D02*
X100600Y21600D01*
D10*
X36150Y771300D02*
X36155Y771693D01*
X36169Y772085D01*
X36193Y772477D01*
X36227Y772868D01*
X36270Y773259D01*
X36323Y773648D01*
X36386Y774035D01*
X36457Y774421D01*
X36539Y774806D01*
X36629Y775188D01*
X36730Y775567D01*
X36839Y775945D01*
X36958Y776319D01*
X37085Y776690D01*
X37222Y777058D01*
X37368Y777423D01*
X37523Y777784D01*
X37686Y778141D01*
X37858Y778494D01*
X38039Y778842D01*
X38229Y779186D01*
X38426Y779526D01*
X38632Y779860D01*
X38846Y780189D01*
X39069Y780513D01*
X39299Y780831D01*
X39536Y781144D01*
X39782Y781450D01*
X40035Y781751D01*
X40295Y782045D01*
X40562Y782333D01*
X40836Y782614D01*
X41117Y782888D01*
X41405Y783155D01*
X41699Y783415D01*
X42000Y783668D01*
X42306Y783914D01*
X42619Y784151D01*
X42937Y784381D01*
X43261Y784604D01*
X43590Y784818D01*
X43924Y785024D01*
X44264Y785221D01*
X44608Y785411D01*
X44956Y785592D01*
X45309Y785764D01*
X45666Y785927D01*
X46027Y786082D01*
X46392Y786228D01*
X46760Y786365D01*
X47131Y786492D01*
X47505Y786611D01*
X47883Y786720D01*
X48262Y786821D01*
X48644Y786911D01*
X49029Y786993D01*
X49415Y787064D01*
X49802Y787127D01*
X50191Y787180D01*
X50582Y787223D01*
X50973Y787257D01*
X51365Y787281D01*
X51757Y787295D01*
X52150Y787300D01*
X52543Y787295D01*
X52935Y787281D01*
X53327Y787257D01*
X53718Y787223D01*
X54109Y787180D01*
X54498Y787127D01*
X54885Y787064D01*
X55271Y786993D01*
X55656Y786911D01*
X56038Y786821D01*
X56417Y786720D01*
X56795Y786611D01*
X57169Y786492D01*
X57540Y786365D01*
X57908Y786228D01*
X58273Y786082D01*
X58634Y785927D01*
X58991Y785764D01*
X59344Y785592D01*
X59692Y785411D01*
X60036Y785221D01*
X60376Y785024D01*
X60710Y784818D01*
X61039Y784604D01*
X61363Y784381D01*
X61681Y784151D01*
X61994Y783914D01*
X62300Y783668D01*
X62601Y783415D01*
X62895Y783155D01*
X63183Y782888D01*
X63464Y782614D01*
X63738Y782333D01*
X64005Y782045D01*
X64265Y781751D01*
X64518Y781450D01*
X64764Y781144D01*
X65001Y780831D01*
X65231Y780513D01*
X65454Y780189D01*
X65668Y779860D01*
X65874Y779526D01*
X66071Y779186D01*
X66261Y778842D01*
X66442Y778494D01*
X66614Y778141D01*
X66777Y777784D01*
X66932Y777423D01*
X67078Y777058D01*
X67215Y776690D01*
X67342Y776319D01*
X67461Y775945D01*
X67570Y775567D01*
X67671Y775188D01*
X67761Y774806D01*
X67843Y774421D01*
X67914Y774035D01*
X67977Y773648D01*
X68030Y773259D01*
X68073Y772868D01*
X68107Y772477D01*
X68131Y772085D01*
X68145Y771693D01*
X68150Y771300D01*
X68145Y770907D01*
X68131Y770515D01*
X68107Y770123D01*
X68073Y769732D01*
X68030Y769341D01*
X67977Y768952D01*
X67914Y768565D01*
X67843Y768179D01*
X67761Y767794D01*
X67671Y767412D01*
X67570Y767033D01*
X67461Y766655D01*
X67342Y766281D01*
X67215Y765910D01*
X67078Y765542D01*
X66932Y765177D01*
X66777Y764816D01*
X66614Y764459D01*
X66442Y764106D01*
X66261Y763758D01*
X66071Y763414D01*
X65874Y763074D01*
X65668Y762740D01*
X65454Y762411D01*
X65231Y762087D01*
X65001Y761769D01*
X64764Y761456D01*
X64518Y761150D01*
X64265Y760849D01*
X64005Y760555D01*
X63738Y760267D01*
X63464Y759986D01*
X63183Y759712D01*
X62895Y759445D01*
X62601Y759185D01*
X62300Y758932D01*
X61994Y758686D01*
X61681Y758449D01*
X61363Y758219D01*
X61039Y757996D01*
X60710Y757782D01*
X60376Y757576D01*
X60036Y757379D01*
X59692Y757189D01*
X59344Y757008D01*
X58991Y756836D01*
X58634Y756673D01*
X58273Y756518D01*
X57908Y756372D01*
X57540Y756235D01*
X57169Y756108D01*
X56795Y755989D01*
X56417Y755880D01*
X56038Y755779D01*
X55656Y755689D01*
X55271Y755607D01*
X54885Y755536D01*
X54498Y755473D01*
X54109Y755420D01*
X53718Y755377D01*
X53327Y755343D01*
X52935Y755319D01*
X52543Y755305D01*
X52150Y755300D01*
X51757Y755305D01*
X51365Y755319D01*
X50973Y755343D01*
X50582Y755377D01*
X50191Y755420D01*
X49802Y755473D01*
X49415Y755536D01*
X49029Y755607D01*
X48644Y755689D01*
X48262Y755779D01*
X47883Y755880D01*
X47505Y755989D01*
X47131Y756108D01*
X46760Y756235D01*
X46392Y756372D01*
X46027Y756518D01*
X45666Y756673D01*
X45309Y756836D01*
X44956Y757008D01*
X44608Y757189D01*
X44264Y757379D01*
X43924Y757576D01*
X43590Y757782D01*
X43261Y757996D01*
X42937Y758219D01*
X42619Y758449D01*
X42306Y758686D01*
X42000Y758932D01*
X41699Y759185D01*
X41405Y759445D01*
X41117Y759712D01*
X40836Y759986D01*
X40562Y760267D01*
X40295Y760555D01*
X40035Y760849D01*
X39782Y761150D01*
X39536Y761456D01*
X39299Y761769D01*
X39069Y762087D01*
X38846Y762411D01*
X38632Y762740D01*
X38426Y763074D01*
X38229Y763414D01*
X38039Y763758D01*
X37858Y764106D01*
X37686Y764459D01*
X37523Y764816D01*
X37368Y765177D01*
X37222Y765542D01*
X37085Y765910D01*
X36958Y766281D01*
X36839Y766655D01*
X36730Y767033D01*
X36629Y767412D01*
X36539Y767794D01*
X36457Y768179D01*
X36386Y768565D01*
X36323Y768952D01*
X36270Y769341D01*
X36227Y769732D01*
X36193Y770123D01*
X36169Y770515D01*
X36155Y770907D01*
X36150Y771300D01*
X150450Y771300D02*
X150455Y771693D01*
X150469Y772085D01*
X150493Y772477D01*
X150527Y772868D01*
X150570Y773259D01*
X150623Y773648D01*
X150686Y774035D01*
X150757Y774421D01*
X150839Y774806D01*
X150929Y775188D01*
X151030Y775567D01*
X151139Y775945D01*
X151258Y776319D01*
X151385Y776690D01*
X151522Y777058D01*
X151668Y777423D01*
X151823Y777784D01*
X151986Y778141D01*
X152158Y778494D01*
X152339Y778842D01*
X152529Y779186D01*
X152726Y779526D01*
X152932Y779860D01*
X153146Y780189D01*
X153369Y780513D01*
X153599Y780831D01*
X153836Y781144D01*
X154082Y781450D01*
X154335Y781751D01*
X154595Y782045D01*
X154862Y782333D01*
X155136Y782614D01*
X155417Y782888D01*
X155705Y783155D01*
X155999Y783415D01*
X156300Y783668D01*
X156606Y783914D01*
X156919Y784151D01*
X157237Y784381D01*
X157561Y784604D01*
X157890Y784818D01*
X158224Y785024D01*
X158564Y785221D01*
X158908Y785411D01*
X159256Y785592D01*
X159609Y785764D01*
X159966Y785927D01*
X160327Y786082D01*
X160692Y786228D01*
X161060Y786365D01*
X161431Y786492D01*
X161805Y786611D01*
X162183Y786720D01*
X162562Y786821D01*
X162944Y786911D01*
X163329Y786993D01*
X163715Y787064D01*
X164102Y787127D01*
X164491Y787180D01*
X164882Y787223D01*
X165273Y787257D01*
X165665Y787281D01*
X166057Y787295D01*
X166450Y787300D01*
X166843Y787295D01*
X167235Y787281D01*
X167627Y787257D01*
X168018Y787223D01*
X168409Y787180D01*
X168798Y787127D01*
X169185Y787064D01*
X169571Y786993D01*
X169956Y786911D01*
X170338Y786821D01*
X170717Y786720D01*
X171095Y786611D01*
X171469Y786492D01*
X171840Y786365D01*
X172208Y786228D01*
X172573Y786082D01*
X172934Y785927D01*
X173291Y785764D01*
X173644Y785592D01*
X173992Y785411D01*
X174336Y785221D01*
X174676Y785024D01*
X175010Y784818D01*
X175339Y784604D01*
X175663Y784381D01*
X175981Y784151D01*
X176294Y783914D01*
X176600Y783668D01*
X176901Y783415D01*
X177195Y783155D01*
X177483Y782888D01*
X177764Y782614D01*
X178038Y782333D01*
X178305Y782045D01*
X178565Y781751D01*
X178818Y781450D01*
X179064Y781144D01*
X179301Y780831D01*
X179531Y780513D01*
X179754Y780189D01*
X179968Y779860D01*
X180174Y779526D01*
X180371Y779186D01*
X180561Y778842D01*
X180742Y778494D01*
X180914Y778141D01*
X181077Y777784D01*
X181232Y777423D01*
X181378Y777058D01*
X181515Y776690D01*
X181642Y776319D01*
X181761Y775945D01*
X181870Y775567D01*
X181971Y775188D01*
X182061Y774806D01*
X182143Y774421D01*
X182214Y774035D01*
X182277Y773648D01*
X182330Y773259D01*
X182373Y772868D01*
X182407Y772477D01*
X182431Y772085D01*
X182445Y771693D01*
X182450Y771300D01*
X182445Y770907D01*
X182431Y770515D01*
X182407Y770123D01*
X182373Y769732D01*
X182330Y769341D01*
X182277Y768952D01*
X182214Y768565D01*
X182143Y768179D01*
X182061Y767794D01*
X181971Y767412D01*
X181870Y767033D01*
X181761Y766655D01*
X181642Y766281D01*
X181515Y765910D01*
X181378Y765542D01*
X181232Y765177D01*
X181077Y764816D01*
X180914Y764459D01*
X180742Y764106D01*
X180561Y763758D01*
X180371Y763414D01*
X180174Y763074D01*
X179968Y762740D01*
X179754Y762411D01*
X179531Y762087D01*
X179301Y761769D01*
X179064Y761456D01*
X178818Y761150D01*
X178565Y760849D01*
X178305Y760555D01*
X178038Y760267D01*
X177764Y759986D01*
X177483Y759712D01*
X177195Y759445D01*
X176901Y759185D01*
X176600Y758932D01*
X176294Y758686D01*
X175981Y758449D01*
X175663Y758219D01*
X175339Y757996D01*
X175010Y757782D01*
X174676Y757576D01*
X174336Y757379D01*
X173992Y757189D01*
X173644Y757008D01*
X173291Y756836D01*
X172934Y756673D01*
X172573Y756518D01*
X172208Y756372D01*
X171840Y756235D01*
X171469Y756108D01*
X171095Y755989D01*
X170717Y755880D01*
X170338Y755779D01*
X169956Y755689D01*
X169571Y755607D01*
X169185Y755536D01*
X168798Y755473D01*
X168409Y755420D01*
X168018Y755377D01*
X167627Y755343D01*
X167235Y755319D01*
X166843Y755305D01*
X166450Y755300D01*
X166057Y755305D01*
X165665Y755319D01*
X165273Y755343D01*
X164882Y755377D01*
X164491Y755420D01*
X164102Y755473D01*
X163715Y755536D01*
X163329Y755607D01*
X162944Y755689D01*
X162562Y755779D01*
X162183Y755880D01*
X161805Y755989D01*
X161431Y756108D01*
X161060Y756235D01*
X160692Y756372D01*
X160327Y756518D01*
X159966Y756673D01*
X159609Y756836D01*
X159256Y757008D01*
X158908Y757189D01*
X158564Y757379D01*
X158224Y757576D01*
X157890Y757782D01*
X157561Y757996D01*
X157237Y758219D01*
X156919Y758449D01*
X156606Y758686D01*
X156300Y758932D01*
X155999Y759185D01*
X155705Y759445D01*
X155417Y759712D01*
X155136Y759986D01*
X154862Y760267D01*
X154595Y760555D01*
X154335Y760849D01*
X154082Y761150D01*
X153836Y761456D01*
X153599Y761769D01*
X153369Y762087D01*
X153146Y762411D01*
X152932Y762740D01*
X152726Y763074D01*
X152529Y763414D01*
X152339Y763758D01*
X152158Y764106D01*
X151986Y764459D01*
X151823Y764816D01*
X151668Y765177D01*
X151522Y765542D01*
X151385Y765910D01*
X151258Y766281D01*
X151139Y766655D01*
X151030Y767033D01*
X150929Y767412D01*
X150839Y767794D01*
X150757Y768179D01*
X150686Y768565D01*
X150623Y768952D01*
X150570Y769341D01*
X150527Y769732D01*
X150493Y770123D01*
X150469Y770515D01*
X150455Y770907D01*
X150450Y771300D01*
D11*
X250800Y681500D02*
X250800Y668500D01*
X333800Y668500D02*
X333800Y681500D01*
X364800Y681500D02*
X364800Y668500D01*
D10*
X285000Y675000D02*
X285005Y675368D01*
X285018Y675736D01*
X285041Y676103D01*
X285072Y676470D01*
X285113Y676836D01*
X285162Y677201D01*
X285221Y677564D01*
X285288Y677926D01*
X285364Y678287D01*
X285450Y678645D01*
X285543Y679001D01*
X285646Y679354D01*
X285757Y679705D01*
X285877Y680053D01*
X286005Y680398D01*
X286142Y680740D01*
X286287Y681079D01*
X286440Y681413D01*
X286602Y681744D01*
X286771Y682071D01*
X286949Y682393D01*
X287134Y682712D01*
X287327Y683025D01*
X287528Y683334D01*
X287736Y683637D01*
X287952Y683935D01*
X288175Y684228D01*
X288405Y684516D01*
X288642Y684798D01*
X288886Y685073D01*
X289136Y685343D01*
X289393Y685607D01*
X289657Y685864D01*
X289927Y686114D01*
X290202Y686358D01*
X290484Y686595D01*
X290772Y686825D01*
X291065Y687048D01*
X291363Y687264D01*
X291666Y687472D01*
X291975Y687673D01*
X292288Y687866D01*
X292607Y688051D01*
X292929Y688229D01*
X293256Y688398D01*
X293587Y688560D01*
X293921Y688713D01*
X294260Y688858D01*
X294602Y688995D01*
X294947Y689123D01*
X295295Y689243D01*
X295646Y689354D01*
X295999Y689457D01*
X296355Y689550D01*
X296713Y689636D01*
X297074Y689712D01*
X297436Y689779D01*
X297799Y689838D01*
X298164Y689887D01*
X298530Y689928D01*
X298897Y689959D01*
X299264Y689982D01*
X299632Y689995D01*
X300000Y690000D01*
X300368Y689995D01*
X300736Y689982D01*
X301103Y689959D01*
X301470Y689928D01*
X301836Y689887D01*
X302201Y689838D01*
X302564Y689779D01*
X302926Y689712D01*
X303287Y689636D01*
X303645Y689550D01*
X304001Y689457D01*
X304354Y689354D01*
X304705Y689243D01*
X305053Y689123D01*
X305398Y688995D01*
X305740Y688858D01*
X306079Y688713D01*
X306413Y688560D01*
X306744Y688398D01*
X307071Y688229D01*
X307393Y688051D01*
X307712Y687866D01*
X308025Y687673D01*
X308334Y687472D01*
X308637Y687264D01*
X308935Y687048D01*
X309228Y686825D01*
X309516Y686595D01*
X309798Y686358D01*
X310073Y686114D01*
X310343Y685864D01*
X310607Y685607D01*
X310864Y685343D01*
X311114Y685073D01*
X311358Y684798D01*
X311595Y684516D01*
X311825Y684228D01*
X312048Y683935D01*
X312264Y683637D01*
X312472Y683334D01*
X312673Y683025D01*
X312866Y682712D01*
X313051Y682393D01*
X313229Y682071D01*
X313398Y681744D01*
X313560Y681413D01*
X313713Y681079D01*
X313858Y680740D01*
X313995Y680398D01*
X314123Y680053D01*
X314243Y679705D01*
X314354Y679354D01*
X314457Y679001D01*
X314550Y678645D01*
X314636Y678287D01*
X314712Y677926D01*
X314779Y677564D01*
X314838Y677201D01*
X314887Y676836D01*
X314928Y676470D01*
X314959Y676103D01*
X314982Y675736D01*
X314995Y675368D01*
X315000Y675000D01*
X314995Y674632D01*
X314982Y674264D01*
X314959Y673897D01*
X314928Y673530D01*
X314887Y673164D01*
X314838Y672799D01*
X314779Y672436D01*
X314712Y672074D01*
X314636Y671713D01*
X314550Y671355D01*
X314457Y670999D01*
X314354Y670646D01*
X314243Y670295D01*
X314123Y669947D01*
X313995Y669602D01*
X313858Y669260D01*
X313713Y668921D01*
X313560Y668587D01*
X313398Y668256D01*
X313229Y667929D01*
X313051Y667607D01*
X312866Y667288D01*
X312673Y666975D01*
X312472Y666666D01*
X312264Y666363D01*
X312048Y666065D01*
X311825Y665772D01*
X311595Y665484D01*
X311358Y665202D01*
X311114Y664927D01*
X310864Y664657D01*
X310607Y664393D01*
X310343Y664136D01*
X310073Y663886D01*
X309798Y663642D01*
X309516Y663405D01*
X309228Y663175D01*
X308935Y662952D01*
X308637Y662736D01*
X308334Y662528D01*
X308025Y662327D01*
X307712Y662134D01*
X307393Y661949D01*
X307071Y661771D01*
X306744Y661602D01*
X306413Y661440D01*
X306079Y661287D01*
X305740Y661142D01*
X305398Y661005D01*
X305053Y660877D01*
X304705Y660757D01*
X304354Y660646D01*
X304001Y660543D01*
X303645Y660450D01*
X303287Y660364D01*
X302926Y660288D01*
X302564Y660221D01*
X302201Y660162D01*
X301836Y660113D01*
X301470Y660072D01*
X301103Y660041D01*
X300736Y660018D01*
X300368Y660005D01*
X300000Y660000D01*
X299632Y660005D01*
X299264Y660018D01*
X298897Y660041D01*
X298530Y660072D01*
X298164Y660113D01*
X297799Y660162D01*
X297436Y660221D01*
X297074Y660288D01*
X296713Y660364D01*
X296355Y660450D01*
X295999Y660543D01*
X295646Y660646D01*
X295295Y660757D01*
X294947Y660877D01*
X294602Y661005D01*
X294260Y661142D01*
X293921Y661287D01*
X293587Y661440D01*
X293256Y661602D01*
X292929Y661771D01*
X292607Y661949D01*
X292288Y662134D01*
X291975Y662327D01*
X291666Y662528D01*
X291363Y662736D01*
X291065Y662952D01*
X290772Y663175D01*
X290484Y663405D01*
X290202Y663642D01*
X289927Y663886D01*
X289657Y664136D01*
X289393Y664393D01*
X289136Y664657D01*
X288886Y664927D01*
X288642Y665202D01*
X288405Y665484D01*
X288175Y665772D01*
X287952Y666065D01*
X287736Y666363D01*
X287528Y666666D01*
X287327Y666975D01*
X287134Y667288D01*
X286949Y667607D01*
X286771Y667929D01*
X286602Y668256D01*
X286440Y668587D01*
X286287Y668921D01*
X286142Y669260D01*
X286005Y669602D01*
X285877Y669947D01*
X285757Y670295D01*
X285646Y670646D01*
X285543Y670999D01*
X285450Y671355D01*
X285364Y671713D01*
X285288Y672074D01*
X285221Y672436D01*
X285162Y672799D01*
X285113Y673164D01*
X285072Y673530D01*
X285041Y673897D01*
X285018Y674264D01*
X285005Y674632D01*
X285000Y675000D01*
D11*
X250800Y788500D02*
X250800Y801500D01*
X333800Y801500D02*
X333800Y788500D01*
X364800Y788500D02*
X364800Y801500D01*
D10*
X285000Y795000D02*
X285005Y795368D01*
X285018Y795736D01*
X285041Y796103D01*
X285072Y796470D01*
X285113Y796836D01*
X285162Y797201D01*
X285221Y797564D01*
X285288Y797926D01*
X285364Y798287D01*
X285450Y798645D01*
X285543Y799001D01*
X285646Y799354D01*
X285757Y799705D01*
X285877Y800053D01*
X286005Y800398D01*
X286142Y800740D01*
X286287Y801079D01*
X286440Y801413D01*
X286602Y801744D01*
X286771Y802071D01*
X286949Y802393D01*
X287134Y802712D01*
X287327Y803025D01*
X287528Y803334D01*
X287736Y803637D01*
X287952Y803935D01*
X288175Y804228D01*
X288405Y804516D01*
X288642Y804798D01*
X288886Y805073D01*
X289136Y805343D01*
X289393Y805607D01*
X289657Y805864D01*
X289927Y806114D01*
X290202Y806358D01*
X290484Y806595D01*
X290772Y806825D01*
X291065Y807048D01*
X291363Y807264D01*
X291666Y807472D01*
X291975Y807673D01*
X292288Y807866D01*
X292607Y808051D01*
X292929Y808229D01*
X293256Y808398D01*
X293587Y808560D01*
X293921Y808713D01*
X294260Y808858D01*
X294602Y808995D01*
X294947Y809123D01*
X295295Y809243D01*
X295646Y809354D01*
X295999Y809457D01*
X296355Y809550D01*
X296713Y809636D01*
X297074Y809712D01*
X297436Y809779D01*
X297799Y809838D01*
X298164Y809887D01*
X298530Y809928D01*
X298897Y809959D01*
X299264Y809982D01*
X299632Y809995D01*
X300000Y810000D01*
X300368Y809995D01*
X300736Y809982D01*
X301103Y809959D01*
X301470Y809928D01*
X301836Y809887D01*
X302201Y809838D01*
X302564Y809779D01*
X302926Y809712D01*
X303287Y809636D01*
X303645Y809550D01*
X304001Y809457D01*
X304354Y809354D01*
X304705Y809243D01*
X305053Y809123D01*
X305398Y808995D01*
X305740Y808858D01*
X306079Y808713D01*
X306413Y808560D01*
X306744Y808398D01*
X307071Y808229D01*
X307393Y808051D01*
X307712Y807866D01*
X308025Y807673D01*
X308334Y807472D01*
X308637Y807264D01*
X308935Y807048D01*
X309228Y806825D01*
X309516Y806595D01*
X309798Y806358D01*
X310073Y806114D01*
X310343Y805864D01*
X310607Y805607D01*
X310864Y805343D01*
X311114Y805073D01*
X311358Y804798D01*
X311595Y804516D01*
X311825Y804228D01*
X312048Y803935D01*
X312264Y803637D01*
X312472Y803334D01*
X312673Y803025D01*
X312866Y802712D01*
X313051Y802393D01*
X313229Y802071D01*
X313398Y801744D01*
X313560Y801413D01*
X313713Y801079D01*
X313858Y800740D01*
X313995Y800398D01*
X314123Y800053D01*
X314243Y799705D01*
X314354Y799354D01*
X314457Y799001D01*
X314550Y798645D01*
X314636Y798287D01*
X314712Y797926D01*
X314779Y797564D01*
X314838Y797201D01*
X314887Y796836D01*
X314928Y796470D01*
X314959Y796103D01*
X314982Y795736D01*
X314995Y795368D01*
X315000Y795000D01*
X314995Y794632D01*
X314982Y794264D01*
X314959Y793897D01*
X314928Y793530D01*
X314887Y793164D01*
X314838Y792799D01*
X314779Y792436D01*
X314712Y792074D01*
X314636Y791713D01*
X314550Y791355D01*
X314457Y790999D01*
X314354Y790646D01*
X314243Y790295D01*
X314123Y789947D01*
X313995Y789602D01*
X313858Y789260D01*
X313713Y788921D01*
X313560Y788587D01*
X313398Y788256D01*
X313229Y787929D01*
X313051Y787607D01*
X312866Y787288D01*
X312673Y786975D01*
X312472Y786666D01*
X312264Y786363D01*
X312048Y786065D01*
X311825Y785772D01*
X311595Y785484D01*
X311358Y785202D01*
X311114Y784927D01*
X310864Y784657D01*
X310607Y784393D01*
X310343Y784136D01*
X310073Y783886D01*
X309798Y783642D01*
X309516Y783405D01*
X309228Y783175D01*
X308935Y782952D01*
X308637Y782736D01*
X308334Y782528D01*
X308025Y782327D01*
X307712Y782134D01*
X307393Y781949D01*
X307071Y781771D01*
X306744Y781602D01*
X306413Y781440D01*
X306079Y781287D01*
X305740Y781142D01*
X305398Y781005D01*
X305053Y780877D01*
X304705Y780757D01*
X304354Y780646D01*
X304001Y780543D01*
X303645Y780450D01*
X303287Y780364D01*
X302926Y780288D01*
X302564Y780221D01*
X302201Y780162D01*
X301836Y780113D01*
X301470Y780072D01*
X301103Y780041D01*
X300736Y780018D01*
X300368Y780005D01*
X300000Y780000D01*
X299632Y780005D01*
X299264Y780018D01*
X298897Y780041D01*
X298530Y780072D01*
X298164Y780113D01*
X297799Y780162D01*
X297436Y780221D01*
X297074Y780288D01*
X296713Y780364D01*
X296355Y780450D01*
X295999Y780543D01*
X295646Y780646D01*
X295295Y780757D01*
X294947Y780877D01*
X294602Y781005D01*
X294260Y781142D01*
X293921Y781287D01*
X293587Y781440D01*
X293256Y781602D01*
X292929Y781771D01*
X292607Y781949D01*
X292288Y782134D01*
X291975Y782327D01*
X291666Y782528D01*
X291363Y782736D01*
X291065Y782952D01*
X290772Y783175D01*
X290484Y783405D01*
X290202Y783642D01*
X289927Y783886D01*
X289657Y784136D01*
X289393Y784393D01*
X289136Y784657D01*
X288886Y784927D01*
X288642Y785202D01*
X288405Y785484D01*
X288175Y785772D01*
X287952Y786065D01*
X287736Y786363D01*
X287528Y786666D01*
X287327Y786975D01*
X287134Y787288D01*
X286949Y787607D01*
X286771Y787929D01*
X286602Y788256D01*
X286440Y788587D01*
X286287Y788921D01*
X286142Y789260D01*
X286005Y789602D01*
X285877Y789947D01*
X285757Y790295D01*
X285646Y790646D01*
X285543Y790999D01*
X285450Y791355D01*
X285364Y791713D01*
X285288Y792074D01*
X285221Y792436D01*
X285162Y792799D01*
X285113Y793164D01*
X285072Y793530D01*
X285041Y793897D01*
X285018Y794264D01*
X285005Y794632D01*
X285000Y795000D01*
D11*
X410800Y681500D02*
X410800Y668500D01*
X493800Y668500D02*
X493800Y681500D01*
X524800Y681500D02*
X524800Y668500D01*
D10*
X445000Y675000D02*
X445005Y675368D01*
X445018Y675736D01*
X445041Y676103D01*
X445072Y676470D01*
X445113Y676836D01*
X445162Y677201D01*
X445221Y677564D01*
X445288Y677926D01*
X445364Y678287D01*
X445450Y678645D01*
X445543Y679001D01*
X445646Y679354D01*
X445757Y679705D01*
X445877Y680053D01*
X446005Y680398D01*
X446142Y680740D01*
X446287Y681079D01*
X446440Y681413D01*
X446602Y681744D01*
X446771Y682071D01*
X446949Y682393D01*
X447134Y682712D01*
X447327Y683025D01*
X447528Y683334D01*
X447736Y683637D01*
X447952Y683935D01*
X448175Y684228D01*
X448405Y684516D01*
X448642Y684798D01*
X448886Y685073D01*
X449136Y685343D01*
X449393Y685607D01*
X449657Y685864D01*
X449927Y686114D01*
X450202Y686358D01*
X450484Y686595D01*
X450772Y686825D01*
X451065Y687048D01*
X451363Y687264D01*
X451666Y687472D01*
X451975Y687673D01*
X452288Y687866D01*
X452607Y688051D01*
X452929Y688229D01*
X453256Y688398D01*
X453587Y688560D01*
X453921Y688713D01*
X454260Y688858D01*
X454602Y688995D01*
X454947Y689123D01*
X455295Y689243D01*
X455646Y689354D01*
X455999Y689457D01*
X456355Y689550D01*
X456713Y689636D01*
X457074Y689712D01*
X457436Y689779D01*
X457799Y689838D01*
X458164Y689887D01*
X458530Y689928D01*
X458897Y689959D01*
X459264Y689982D01*
X459632Y689995D01*
X460000Y690000D01*
X460368Y689995D01*
X460736Y689982D01*
X461103Y689959D01*
X461470Y689928D01*
X461836Y689887D01*
X462201Y689838D01*
X462564Y689779D01*
X462926Y689712D01*
X463287Y689636D01*
X463645Y689550D01*
X464001Y689457D01*
X464354Y689354D01*
X464705Y689243D01*
X465053Y689123D01*
X465398Y688995D01*
X465740Y688858D01*
X466079Y688713D01*
X466413Y688560D01*
X466744Y688398D01*
X467071Y688229D01*
X467393Y688051D01*
X467712Y687866D01*
X468025Y687673D01*
X468334Y687472D01*
X468637Y687264D01*
X468935Y687048D01*
X469228Y686825D01*
X469516Y686595D01*
X469798Y686358D01*
X470073Y686114D01*
X470343Y685864D01*
X470607Y685607D01*
X470864Y685343D01*
X471114Y685073D01*
X471358Y684798D01*
X471595Y684516D01*
X471825Y684228D01*
X472048Y683935D01*
X472264Y683637D01*
X472472Y683334D01*
X472673Y683025D01*
X472866Y682712D01*
X473051Y682393D01*
X473229Y682071D01*
X473398Y681744D01*
X473560Y681413D01*
X473713Y681079D01*
X473858Y680740D01*
X473995Y680398D01*
X474123Y680053D01*
X474243Y679705D01*
X474354Y679354D01*
X474457Y679001D01*
X474550Y678645D01*
X474636Y678287D01*
X474712Y677926D01*
X474779Y677564D01*
X474838Y677201D01*
X474887Y676836D01*
X474928Y676470D01*
X474959Y676103D01*
X474982Y675736D01*
X474995Y675368D01*
X475000Y675000D01*
X474995Y674632D01*
X474982Y674264D01*
X474959Y673897D01*
X474928Y673530D01*
X474887Y673164D01*
X474838Y672799D01*
X474779Y672436D01*
X474712Y672074D01*
X474636Y671713D01*
X474550Y671355D01*
X474457Y670999D01*
X474354Y670646D01*
X474243Y670295D01*
X474123Y669947D01*
X473995Y669602D01*
X473858Y669260D01*
X473713Y668921D01*
X473560Y668587D01*
X473398Y668256D01*
X473229Y667929D01*
X473051Y667607D01*
X472866Y667288D01*
X472673Y666975D01*
X472472Y666666D01*
X472264Y666363D01*
X472048Y666065D01*
X471825Y665772D01*
X471595Y665484D01*
X471358Y665202D01*
X471114Y664927D01*
X470864Y664657D01*
X470607Y664393D01*
X470343Y664136D01*
X470073Y663886D01*
X469798Y663642D01*
X469516Y663405D01*
X469228Y663175D01*
X468935Y662952D01*
X468637Y662736D01*
X468334Y662528D01*
X468025Y662327D01*
X467712Y662134D01*
X467393Y661949D01*
X467071Y661771D01*
X466744Y661602D01*
X466413Y661440D01*
X466079Y661287D01*
X465740Y661142D01*
X465398Y661005D01*
X465053Y660877D01*
X464705Y660757D01*
X464354Y660646D01*
X464001Y660543D01*
X463645Y660450D01*
X463287Y660364D01*
X462926Y660288D01*
X462564Y660221D01*
X462201Y660162D01*
X461836Y660113D01*
X461470Y660072D01*
X461103Y660041D01*
X460736Y660018D01*
X460368Y660005D01*
X460000Y660000D01*
X459632Y660005D01*
X459264Y660018D01*
X458897Y660041D01*
X458530Y660072D01*
X458164Y660113D01*
X457799Y660162D01*
X457436Y660221D01*
X457074Y660288D01*
X456713Y660364D01*
X456355Y660450D01*
X455999Y660543D01*
X455646Y660646D01*
X455295Y660757D01*
X454947Y660877D01*
X454602Y661005D01*
X454260Y661142D01*
X453921Y661287D01*
X453587Y661440D01*
X453256Y661602D01*
X452929Y661771D01*
X452607Y661949D01*
X452288Y662134D01*
X451975Y662327D01*
X451666Y662528D01*
X451363Y662736D01*
X451065Y662952D01*
X450772Y663175D01*
X450484Y663405D01*
X450202Y663642D01*
X449927Y663886D01*
X449657Y664136D01*
X449393Y664393D01*
X449136Y664657D01*
X448886Y664927D01*
X448642Y665202D01*
X448405Y665484D01*
X448175Y665772D01*
X447952Y666065D01*
X447736Y666363D01*
X447528Y666666D01*
X447327Y666975D01*
X447134Y667288D01*
X446949Y667607D01*
X446771Y667929D01*
X446602Y668256D01*
X446440Y668587D01*
X446287Y668921D01*
X446142Y669260D01*
X446005Y669602D01*
X445877Y669947D01*
X445757Y670295D01*
X445646Y670646D01*
X445543Y670999D01*
X445450Y671355D01*
X445364Y671713D01*
X445288Y672074D01*
X445221Y672436D01*
X445162Y672799D01*
X445113Y673164D01*
X445072Y673530D01*
X445041Y673897D01*
X445018Y674264D01*
X445005Y674632D01*
X445000Y675000D01*
D11*
X410800Y788500D02*
X410800Y801500D01*
X493800Y801500D02*
X493800Y788500D01*
X524800Y788500D02*
X524800Y801500D01*
D10*
X445000Y795000D02*
X445005Y795368D01*
X445018Y795736D01*
X445041Y796103D01*
X445072Y796470D01*
X445113Y796836D01*
X445162Y797201D01*
X445221Y797564D01*
X445288Y797926D01*
X445364Y798287D01*
X445450Y798645D01*
X445543Y799001D01*
X445646Y799354D01*
X445757Y799705D01*
X445877Y800053D01*
X446005Y800398D01*
X446142Y800740D01*
X446287Y801079D01*
X446440Y801413D01*
X446602Y801744D01*
X446771Y802071D01*
X446949Y802393D01*
X447134Y802712D01*
X447327Y803025D01*
X447528Y803334D01*
X447736Y803637D01*
X447952Y803935D01*
X448175Y804228D01*
X448405Y804516D01*
X448642Y804798D01*
X448886Y805073D01*
X449136Y805343D01*
X449393Y805607D01*
X449657Y805864D01*
X449927Y806114D01*
X450202Y806358D01*
X450484Y806595D01*
X450772Y806825D01*
X451065Y807048D01*
X451363Y807264D01*
X451666Y807472D01*
X451975Y807673D01*
X452288Y807866D01*
X452607Y808051D01*
X452929Y808229D01*
X453256Y808398D01*
X453587Y808560D01*
X453921Y808713D01*
X454260Y808858D01*
X454602Y808995D01*
X454947Y809123D01*
X455295Y809243D01*
X455646Y809354D01*
X455999Y809457D01*
X456355Y809550D01*
X456713Y809636D01*
X457074Y809712D01*
X457436Y809779D01*
X457799Y809838D01*
X458164Y809887D01*
X458530Y809928D01*
X458897Y809959D01*
X459264Y809982D01*
X459632Y809995D01*
X460000Y810000D01*
X460368Y809995D01*
X460736Y809982D01*
X461103Y809959D01*
X461470Y809928D01*
X461836Y809887D01*
X462201Y809838D01*
X462564Y809779D01*
X462926Y809712D01*
X463287Y809636D01*
X463645Y809550D01*
X464001Y809457D01*
X464354Y809354D01*
X464705Y809243D01*
X465053Y809123D01*
X465398Y808995D01*
X465740Y808858D01*
X466079Y808713D01*
X466413Y808560D01*
X466744Y808398D01*
X467071Y808229D01*
X467393Y808051D01*
X467712Y807866D01*
X468025Y807673D01*
X468334Y807472D01*
X468637Y807264D01*
X468935Y807048D01*
X469228Y806825D01*
X469516Y806595D01*
X469798Y806358D01*
X470073Y806114D01*
X470343Y805864D01*
X470607Y805607D01*
X470864Y805343D01*
X471114Y805073D01*
X471358Y804798D01*
X471595Y804516D01*
X471825Y804228D01*
X472048Y803935D01*
X472264Y803637D01*
X472472Y803334D01*
X472673Y803025D01*
X472866Y802712D01*
X473051Y802393D01*
X473229Y802071D01*
X473398Y801744D01*
X473560Y801413D01*
X473713Y801079D01*
X473858Y800740D01*
X473995Y800398D01*
X474123Y800053D01*
X474243Y799705D01*
X474354Y799354D01*
X474457Y799001D01*
X474550Y798645D01*
X474636Y798287D01*
X474712Y797926D01*
X474779Y797564D01*
X474838Y797201D01*
X474887Y796836D01*
X474928Y796470D01*
X474959Y796103D01*
X474982Y795736D01*
X474995Y795368D01*
X475000Y795000D01*
X474995Y794632D01*
X474982Y794264D01*
X474959Y793897D01*
X474928Y793530D01*
X474887Y793164D01*
X474838Y792799D01*
X474779Y792436D01*
X474712Y792074D01*
X474636Y791713D01*
X474550Y791355D01*
X474457Y790999D01*
X474354Y790646D01*
X474243Y790295D01*
X474123Y789947D01*
X473995Y789602D01*
X473858Y789260D01*
X473713Y788921D01*
X473560Y788587D01*
X473398Y788256D01*
X473229Y787929D01*
X473051Y787607D01*
X472866Y787288D01*
X472673Y786975D01*
X472472Y786666D01*
X472264Y786363D01*
X472048Y786065D01*
X471825Y785772D01*
X471595Y785484D01*
X471358Y785202D01*
X471114Y784927D01*
X470864Y784657D01*
X470607Y784393D01*
X470343Y784136D01*
X470073Y783886D01*
X469798Y783642D01*
X469516Y783405D01*
X469228Y783175D01*
X468935Y782952D01*
X468637Y782736D01*
X468334Y782528D01*
X468025Y782327D01*
X467712Y782134D01*
X467393Y781949D01*
X467071Y781771D01*
X466744Y781602D01*
X466413Y781440D01*
X466079Y781287D01*
X465740Y781142D01*
X465398Y781005D01*
X465053Y780877D01*
X464705Y780757D01*
X464354Y780646D01*
X464001Y780543D01*
X463645Y780450D01*
X463287Y780364D01*
X462926Y780288D01*
X462564Y780221D01*
X462201Y780162D01*
X461836Y780113D01*
X461470Y780072D01*
X461103Y780041D01*
X460736Y780018D01*
X460368Y780005D01*
X460000Y780000D01*
X459632Y780005D01*
X459264Y780018D01*
X458897Y780041D01*
X458530Y780072D01*
X458164Y780113D01*
X457799Y780162D01*
X457436Y780221D01*
X457074Y780288D01*
X456713Y780364D01*
X456355Y780450D01*
X455999Y780543D01*
X455646Y780646D01*
X455295Y780757D01*
X454947Y780877D01*
X454602Y781005D01*
X454260Y781142D01*
X453921Y781287D01*
X453587Y781440D01*
X453256Y781602D01*
X452929Y781771D01*
X452607Y781949D01*
X452288Y782134D01*
X451975Y782327D01*
X451666Y782528D01*
X451363Y782736D01*
X451065Y782952D01*
X450772Y783175D01*
X450484Y783405D01*
X450202Y783642D01*
X449927Y783886D01*
X449657Y784136D01*
X449393Y784393D01*
X449136Y784657D01*
X448886Y784927D01*
X448642Y785202D01*
X448405Y785484D01*
X448175Y785772D01*
X447952Y786065D01*
X447736Y786363D01*
X447528Y786666D01*
X447327Y786975D01*
X447134Y787288D01*
X446949Y787607D01*
X446771Y787929D01*
X446602Y788256D01*
X446440Y788587D01*
X446287Y788921D01*
X446142Y789260D01*
X446005Y789602D01*
X445877Y789947D01*
X445757Y790295D01*
X445646Y790646D01*
X445543Y790999D01*
X445450Y791355D01*
X445364Y791713D01*
X445288Y792074D01*
X445221Y792436D01*
X445162Y792799D01*
X445113Y793164D01*
X445072Y793530D01*
X445041Y793897D01*
X445018Y794264D01*
X445005Y794632D01*
X445000Y795000D01*
M02*
